<svg width="222" height="205" viewBox="0 0 222 205" fill="none" xmlns="http://www.w3.org/2000/svg">
<path opacity="0.5" d="M352.62 108.405C312.953 50.8484 148.488 83.439 86.5187 158.939C24.924 233.444 76.0574 216.662 235.104 289.095C394.151 361.528 392.287 165.962 352.62 108.405Z" fill="url(#paint0_linear_1640_8363)"/>
<path opacity="0.5" d="M258.23 125.101C216.268 102.05 125.406 151.332 110.561 216.472C95.6406 280.888 121.873 275.969 241.579 271.57C361.284 267.171 300.191 148.153 258.23 125.101Z" fill="url(#paint1_linear_1640_8363)"/>
<path opacity="0.5" d="M294.135 139.805C254.882 82.9809 105.851 87.9082 44.6524 162.361C-16.1763 235.833 20.8408 246.42 178.11 318.013C335.38 389.607 333.389 196.63 294.135 139.805Z" fill="url(#paint2_linear_1640_8363)"/>
<defs>
<linearGradient id="paint0_linear_1640_8363" x1="273.403" y1="68.063" x2="195.516" y2="274.752" gradientUnits="userSpaceOnUse">
<stop stop-color="#0E86F4"/>
<stop offset="1" stop-color="#0047FF" stop-opacity="0.45"/>
</linearGradient>
<linearGradient id="paint1_linear_1640_8363" x1="198.043" y1="122.566" x2="213.865" y2="274.82" gradientUnits="userSpaceOnUse">
<stop stop-color="#0E86F4"/>
<stop offset="1" stop-color="#0047FF" stop-opacity="0.45"/>
</linearGradient>
<linearGradient id="paint2_linear_1640_8363" x1="218.126" y1="97.6839" x2="140.26" y2="304.318" gradientUnits="userSpaceOnUse">
<stop stop-color="#0E86F4"/>
<stop offset="1" stop-color="#0047FF" stop-opacity="0.45"/>
</linearGradient>
</defs>
</svg>
