<svg width="16" height="16" viewBox="0 0 16 16" fill="none" xmlns="http://www.w3.org/2000/svg">
<g clip-path="url(#clip0_2201_8666)">
<path d="M14.8784 2.95401L5.66576 12.166C5.60382 12.2282 5.53021 12.2775 5.44916 12.3112C5.3681 12.3449 5.2812 12.3622 5.19343 12.3622C5.10566 12.3622 5.01875 12.3449 4.9377 12.3112C4.85664 12.2775 4.78303 12.2282 4.72109 12.166L1.15844 8.60001C1.0965 8.53783 1.02289 8.48848 0.941832 8.45482C0.860777 8.42115 0.773872 8.40382 0.686103 8.40382C0.598334 8.40382 0.511429 8.42115 0.430374 8.45482C0.349319 8.48848 0.27571 8.53783 0.21377 8.60001C0.151586 8.66195 0.102245 8.73556 0.0685769 8.81661C0.0349092 8.89767 0.0175781 8.98457 0.0175781 9.07234C0.0175781 9.16011 0.0349092 9.24702 0.0685769 9.32807C0.102245 9.40913 0.151586 9.48274 0.21377 9.54468L3.77776 13.108C4.15373 13.4833 4.66323 13.694 5.19443 13.694C5.72563 13.694 6.23513 13.4833 6.61109 13.108L15.8231 3.89801C15.8852 3.83608 15.9344 3.76251 15.968 3.68152C16.0016 3.60052 16.0189 3.5137 16.0189 3.42601C16.0189 3.33832 16.0016 3.25149 15.968 3.17049C15.9344 3.0895 15.8852 3.01593 15.8231 2.95401C15.7611 2.89182 15.6875 2.84248 15.6065 2.80881C15.5254 2.77514 15.4385 2.75781 15.3507 2.75781C15.263 2.75781 15.1761 2.77514 15.095 2.80881C15.014 2.84248 14.9403 2.89182 14.8784 2.95401Z" fill="#AAADB3"/>
</g>
<defs>
<clipPath id="clip0_2201_8666">
<rect width="16" height="16" fill="white"/>
</clipPath>
</defs>
</svg>
