<svg width="36" height="36" viewBox="0 0 36 36" fill="none" xmlns="http://www.w3.org/2000/svg">
<path d="M27.6 11.0683C27.3287 10.9909 27.081 10.8469 26.8795 10.6494C26.6781 10.4519 26.5292 10.2071 26.4465 9.93733C25.9871 8.3804 25.2167 6.93285 24.1818 5.68227C23.1468 4.4317 21.8689 3.4041 20.4254 2.66167C18.9818 1.91924 17.4026 1.4774 15.7834 1.3629C14.1642 1.2484 12.5385 1.46361 11.0049 1.99552C9.47121 2.52742 8.06141 3.36496 6.86079 4.45745C5.66016 5.54994 4.69367 6.87466 4.0198 8.35146C3.34593 9.82826 2.97869 11.4264 2.94031 13.0493C2.90193 14.6721 3.19319 16.2858 3.79649 17.7928C3.93508 18.11 3.96492 18.464 3.88136 18.7999C3.7978 19.1358 3.60553 19.4346 3.33449 19.6498C2.14008 20.5363 1.20756 21.7292 0.635615 23.1023C0.0636733 24.4754 -0.126408 25.9776 0.0854882 27.4498C0.416168 29.4401 1.44947 31.2459 2.99786 32.5395C4.54625 33.833 6.50709 34.5285 8.52449 34.4998H16.5C16.8978 34.4998 17.2793 34.3418 17.5606 34.0605C17.842 33.7792 18 33.3976 18 32.9998C18 32.602 17.842 32.2205 17.5606 31.9392C17.2793 31.6579 16.8978 31.4998 16.5 31.4998H8.52449C7.22891 31.5313 5.96493 31.0975 4.96163 30.2772C3.95833 29.4569 3.2821 28.3043 3.05549 27.0283C2.91178 26.0904 3.02825 25.1311 3.3922 24.2548C3.75614 23.3785 4.35361 22.6189 5.11949 22.0588C5.92397 21.4576 6.50591 20.6061 6.77389 19.6382C7.04187 18.6702 6.9807 17.6407 6.59999 16.7113C5.84722 14.7234 5.80851 12.5357 6.49049 10.5223C7.03528 8.94519 8.01086 7.55215 9.30672 6.50099C10.6026 5.44984 12.1669 4.78259 13.8225 4.57483C14.2065 4.52539 14.5933 4.50034 14.9805 4.49983C16.9201 4.49343 18.8095 5.11548 20.366 6.27282C21.9225 7.43016 23.0622 9.06053 23.6145 10.9198C23.8301 11.6284 24.2185 12.2722 24.7448 12.7933C25.2712 13.3143 25.9188 13.6963 26.6295 13.9048C28.3687 14.4192 29.9093 15.4526 31.045 16.8668C32.1807 18.2809 32.8573 20.0082 32.9843 21.8175C33.1112 23.6267 32.6824 25.4316 31.7552 26.9904C30.8281 28.5492 29.4469 29.7876 27.7965 30.5398C27.5522 30.6649 27.348 30.8561 27.2072 31.0916C27.0664 31.3271 26.9946 31.5975 27 31.8718C26.9971 32.12 27.0565 32.365 27.1729 32.5842C27.2894 32.8035 27.459 32.99 27.6662 33.1266C27.8735 33.2632 28.1117 33.3456 28.3591 33.3662C28.6064 33.3867 28.855 33.3448 29.082 33.2443C35.283 30.2638 38.652 22.4233 33.402 14.8483C31.9564 12.9627 29.9089 11.6288 27.6 11.0683Z" fill="#E0E1E6"/>
<path d="M28.0605 25.0607C28.3417 24.7794 28.4997 24.3979 28.4997 24.0002C28.4997 23.6025 28.3417 23.221 28.0605 22.9397L25.6815 20.5607C24.8376 19.7171 23.6932 19.2432 22.5 19.2432C21.3068 19.2432 20.1624 19.7171 19.3185 20.5607L16.9395 22.9397C16.6663 23.2226 16.5151 23.6015 16.5185 23.9948C16.5219 24.3881 16.6797 24.7643 16.9578 25.0424C17.2359 25.3205 17.6121 25.4783 18.0054 25.4817C18.3987 25.4851 18.7776 25.3339 19.0605 25.0607L21 23.1212V34.5002C21 34.898 21.158 35.2796 21.4393 35.5609C21.7206 35.8422 22.1022 36.0002 22.5 36.0002C22.8978 36.0002 23.2793 35.8422 23.5606 35.5609C23.842 35.2796 24 34.898 24 34.5002V23.1212L25.9395 25.0607C26.2208 25.3419 26.6022 25.4999 27 25.4999C27.3977 25.4999 27.7792 25.3419 28.0605 25.0607Z" fill="#E0E1E6"/>
</svg>
