<svg width="20" height="20" viewBox="0 0 20 20" fill="none" xmlns="http://www.w3.org/2000/svg">
<g clip-path="url(#clip0_1927_211)">
<path d="M18.7956 11.3851L17.2122 5.6884C16.7482 4.01951 15.7395 2.55364 14.3467 1.52379C12.9539 0.493945 11.2568 -0.0407771 9.52513 0.00462298C7.79351 0.0500231 6.12675 0.67294 4.7898 1.77436C3.45284 2.87578 2.52241 4.39249 2.14641 6.0834L0.920574 11.5959C0.78517 12.205 0.788301 12.8368 0.929735 13.4445C1.07117 14.0522 1.34729 14.6205 1.73773 15.1072C2.12816 15.5939 2.62293 15.9868 3.1855 16.2567C3.74808 16.5266 4.36409 16.6668 4.98808 16.6667H5.91641C6.10767 17.6086 6.61869 18.4555 7.36286 19.0637C8.10704 19.672 9.03862 20.0042 9.99975 20.0042C10.9609 20.0042 11.8925 19.672 12.6366 19.0637C13.3808 18.4555 13.8918 17.6086 14.0831 16.6667H14.7814C15.4238 16.6668 16.0574 16.5183 16.6329 16.2329C17.2083 15.9476 17.71 15.533 18.0988 15.0216C18.4875 14.5103 18.7527 13.9159 18.8738 13.2851C18.9948 12.6543 18.9683 12.004 18.7964 11.3851H18.7956ZM9.99975 18.3334C9.48453 18.3313 8.98255 18.17 8.5625 17.8717C8.14244 17.5733 7.82481 17.1525 7.65308 16.6667H12.3464C12.1747 17.1525 11.8571 17.5733 11.437 17.8717C11.0169 18.17 10.515 18.3313 9.99975 18.3334ZM16.7714 14.0126C16.5392 14.3206 16.2383 14.5703 15.8928 14.7417C15.5472 14.9131 15.1663 15.0016 14.7806 15.0001H4.98808C4.61373 15 4.24418 14.9159 3.90669 14.7539C3.56921 14.5919 3.27241 14.3562 3.03821 14.0641C2.80401 13.7721 2.63838 13.4312 2.55354 13.0666C2.46871 12.702 2.46684 12.323 2.54807 11.9576L3.77308 6.44423C4.06837 5.11607 4.79917 3.92474 5.84929 3.05961C6.89941 2.19448 8.2086 1.70521 9.56872 1.66958C10.9288 1.63395 12.2619 2.054 13.3558 2.86296C14.4498 3.67192 15.242 4.82336 15.6064 6.13423L17.1897 11.8309C17.2944 12.202 17.311 12.5925 17.2384 12.9712C17.1658 13.3499 17.0059 13.7064 16.7714 14.0126Z" fill="#606266"/>
</g>
<defs>
<clipPath id="clip0_1927_211">
<rect width="20" height="20" fill="white"/>
</clipPath>
</defs>
</svg>
