<svg width="20" height="20" viewBox="0 0 20 20" fill="none" xmlns="http://www.w3.org/2000/svg">
<g clip-path="url(#clip0_3046_11779)">
<path d="M14.3467 1.52379C12.9539 0.493945 11.2568 -0.0407771 9.52513 0.00462298C7.79351 0.0500231 6.12675 0.67294 4.7898 1.77436C3.45284 2.87578 2.52241 4.39249 2.14641 6.0834L0.920574 11.5959C0.78517 12.205 0.788301 12.8368 0.929735 13.4445C1.0058 13.7713 1.12082 14.0868 1.27163 14.3842C1.41209 14.6613 1.77887 14.6929 1.99852 14.4732L2.52403 13.9477C2.68013 13.7916 2.71038 13.5531 2.63574 13.3453C2.60304 13.2543 2.57557 13.1613 2.55354 13.0666C2.46871 12.702 2.46684 12.323 2.54807 11.9576L3.77308 6.44423C4.06837 5.11607 4.79916 3.92474 5.84929 3.05961C6.89941 2.19448 8.2086 1.70521 9.56872 1.66958C10.9288 1.63395 12.2619 2.054 13.3558 2.86296C13.4386 2.92418 13.5542 2.91759 13.627 2.84478L14.381 2.0907C14.5435 1.92821 14.5315 1.66041 14.3467 1.52379Z" fill="#C4C6CC"/>
<path fill-rule="evenodd" clip-rule="evenodd" d="M18.7956 11.3851L17.2122 5.6884C17.1529 5.47485 16.8872 5.41299 16.7304 5.56972L15.9344 6.36574C15.8069 6.49323 15.758 6.67948 15.8062 6.85319L17.1897 11.8309C17.2944 12.202 17.311 12.5925 17.2384 12.9712C17.1658 13.3499 17.0059 13.7064 16.7714 14.0126C16.5392 14.3206 16.2383 14.5703 15.8928 14.7417C15.5472 14.9131 15.1663 15.0016 14.7806 15.0001H7.50721C7.3746 15.0001 7.24742 15.0527 7.15365 15.1465L5.83353 16.4666C5.75969 16.5405 5.81198 16.6667 5.91641 16.6667C6.10767 17.6086 6.61868 18.4555 7.36286 19.0637C8.10704 19.672 9.03861 20.0042 9.99974 20.0042C10.9609 20.0042 11.8925 19.672 12.6366 19.0637C13.3808 18.4555 13.8918 17.6086 14.0831 16.6667H14.7814C15.4238 16.6668 16.0574 16.5183 16.6329 16.2329C17.2083 15.9476 17.71 15.533 18.0988 15.0216C18.4875 14.5103 18.7527 13.9159 18.8738 13.2851C18.9948 12.6543 18.9675 12.004 18.7956 11.3851ZM8.56249 17.8717C8.98255 18.17 9.48453 18.3313 9.99974 18.3334C10.515 18.3313 11.0169 18.17 11.437 17.8717C11.8571 17.5733 12.1747 17.1525 12.3464 16.6667H7.65308C7.82481 17.1525 8.14244 17.5733 8.56249 17.8717Z" fill="#C4C6CC"/>
<path d="M0.284082 18.0429C-0.101821 18.438 -0.0943724 19.0711 0.300719 19.457C0.69581 19.8429 1.32893 19.8355 1.71483 19.4404L0.284082 18.0429ZM18.4857 2.27017C18.8716 1.87508 18.8642 1.24196 18.4691 0.856055C18.074 0.470151 17.4409 0.4776 17.055 0.872691L18.4857 2.27017ZM1.71483 19.4404L18.4857 2.27017L17.055 0.872691L0.284082 18.0429L1.71483 19.4404Z" fill="#C4C6CC"/>
</g>
<defs>
<clipPath id="clip0_3046_11779">
<rect width="20" height="20" fill="white"/>
</clipPath>
</defs>
</svg>
