<svg width="20" height="22" viewBox="0 0 20 22" fill="none" xmlns="http://www.w3.org/2000/svg">
<path d="M17.3349 4.35942C17.32 4.25034 17.2247 4.18982 17.1456 4.18324C17.0671 4.17665 15.5294 4.15328 15.5294 4.15328C15.5294 4.15328 14.2434 2.90443 14.1163 2.77738C13.9893 2.65034 13.7412 2.68869 13.6447 2.71746C13.6435 2.71806 13.4032 2.79236 12.9987 2.91761C12.931 2.69828 12.8315 2.42861 12.6895 2.15775C12.2317 1.28403 11.5611 0.822005 10.7509 0.82081C10.7497 0.82081 10.7491 0.82081 10.7479 0.82081C10.6916 0.82081 10.6358 0.826203 10.5795 0.830995C10.5556 0.802231 10.5316 0.774068 10.5064 0.746499C10.1534 0.368969 9.70103 0.184997 9.15869 0.201177C8.11239 0.23114 7.07029 0.986803 6.22534 2.32914C5.63087 3.27357 5.17842 4.46011 5.05019 5.37876C3.84867 5.75089 3.00851 6.01096 2.98993 6.01697C2.38349 6.20752 2.36431 6.22609 2.28521 6.79781C2.22648 7.22984 0.639648 19.5003 0.639648 19.5003L13.9378 21.8002L19.7014 20.3674C19.7014 20.3674 17.3499 4.4685 17.3349 4.35942ZM12.333 3.12375C12.0267 3.21844 11.6785 3.3263 11.301 3.44316C11.2932 2.91341 11.2303 2.17633 10.9834 1.53932C11.7774 1.68973 12.1681 2.58802 12.333 3.12375ZM10.6053 3.65889C9.90835 3.87461 9.14789 4.11012 8.38505 4.34624C8.59957 3.52466 9.00648 2.70667 9.50627 2.17033C9.69203 1.97078 9.95209 1.74846 10.2601 1.62141C10.5495 2.22547 10.6125 3.08061 10.6053 3.65889ZM9.17964 0.897512C9.42534 0.892119 9.63209 0.946054 9.80889 1.06231C9.52603 1.20913 9.25276 1.42007 8.99629 1.69512C8.3317 2.40824 7.82233 3.51507 7.61919 4.58294C6.98576 4.77889 6.36613 4.97128 5.79564 5.14746C6.15582 3.46653 7.56465 0.944254 9.17964 0.897512Z" fill="#D55140"/>
<path d="M17.1463 4.18375C17.0678 4.17716 15.5301 4.1538 15.5301 4.1538C15.5301 4.1538 14.2441 2.90494 14.1171 2.7779C14.0697 2.73056 14.0056 2.70599 13.9385 2.6958L13.9391 21.7995L19.7021 20.3673C19.7021 20.3673 17.3507 4.46902 17.3357 4.35994C17.3207 4.25086 17.2248 4.19034 17.1463 4.18375Z" fill="#B33626"/>
<path d="M10.7439 7.14726L10.0745 9.65153C10.0745 9.65153 9.32785 9.31176 8.44275 9.36749C7.14474 9.44961 7.13095 10.2682 7.14416 10.4737C7.21486 11.5937 10.1614 11.8382 10.3268 14.4618C10.4568 16.5256 9.23194 17.9375 7.46715 18.0489C5.34877 18.1826 4.18262 16.9331 4.18262 16.9331L4.63147 15.0239C4.63147 15.0239 5.80539 15.9096 6.74503 15.8503C7.35868 15.8113 7.578 15.3121 7.55582 14.9592C7.46355 13.4982 5.06412 13.5845 4.91252 11.1838C4.78486 9.16377 6.11164 7.1167 9.03898 6.93213C10.1668 6.85962 10.7439 7.14726 10.7439 7.14726Z" fill="white"/>
</svg>