<svg width="12" height="12" viewBox="0 0 12 12" fill="none" xmlns="http://www.w3.org/2000/svg">
<path d="M4.07245 2.08602C4.01778 2.14025 3.97438 2.20477 3.94476 2.27585C3.91515 2.34693 3.8999 2.42318 3.8999 2.50019C3.8999 2.57719 3.91515 2.65344 3.94476 2.72452C3.97438 2.79561 4.01778 2.86012 4.07245 2.91435L6.74411 5.58602C6.79879 5.64025 6.84218 5.70477 6.8718 5.77585C6.90141 5.84694 6.91666 5.92318 6.91666 6.00019C6.91666 6.07719 6.90141 6.15344 6.8718 6.22452C6.84218 6.29561 6.79879 6.36013 6.74411 6.41435L4.07245 9.08602C4.01778 9.14025 3.97438 9.20477 3.94476 9.27585C3.91515 9.34694 3.8999 9.42318 3.8999 9.50019C3.8999 9.5772 3.91515 9.65344 3.94476 9.72453C3.97438 9.79561 4.01778 9.86013 4.07245 9.91436C4.18175 10.023 4.32959 10.084 4.4837 10.084C4.63781 10.084 4.78565 10.023 4.89495 9.91436L7.57244 7.23685C7.90016 6.90873 8.08424 6.46394 8.08424 6.00019C8.08424 5.53644 7.90016 5.09165 7.57244 4.76352L4.89495 2.08602C4.78565 1.97737 4.63781 1.91639 4.4837 1.91639C4.32959 1.91639 4.18175 1.97737 4.07245 2.08602Z" fill="#797A80"/>
</svg>
