<svg width="8" height="5" viewBox="0 0 8 5" fill="none" xmlns="http://www.w3.org/2000/svg">
<path d="M7.35442 1.10493C7.30794 1.05807 7.25264 1.02087 7.19171 0.995485C7.13078 0.9701 7.06543 0.957031 6.99942 0.957031C6.93342 0.957031 6.86806 0.9701 6.80713 0.995485C6.7462 1.02087 6.6909 1.05807 6.64442 1.10493L4.35442 3.39493C4.30794 3.44179 4.25264 3.47899 4.19171 3.50437C4.13078 3.52976 4.06543 3.54282 3.99942 3.54282C3.93341 3.54282 3.86806 3.52976 3.80713 3.50437C3.7462 3.47899 3.6909 3.44179 3.64442 3.39493L1.35442 1.10493C1.30794 1.05807 1.25264 1.02087 1.19171 0.995485C1.13078 0.9701 1.06543 0.957031 0.99942 0.957031C0.933414 0.957031 0.868061 0.9701 0.807131 0.995485C0.746202 1.02087 0.690901 1.05807 0.64442 1.10493C0.551294 1.19861 0.499023 1.32534 0.499023 1.45743C0.499023 1.58952 0.551294 1.71625 0.64442 1.80993L2.93942 4.10492C3.22067 4.38583 3.60192 4.5436 3.99942 4.5436C4.39692 4.5436 4.77817 4.38583 5.05942 4.10492L7.35442 1.80993C7.44755 1.71625 7.49982 1.58952 7.49982 1.45743C7.49982 1.32534 7.44755 1.19861 7.35442 1.10493Z" fill="#313133"/>
</svg>
