<svg width="272" height="239" viewBox="0 0 272 239" fill="none" xmlns="http://www.w3.org/2000/svg">
<g opacity="0.6">
<circle cx="4" cy="4" r="4" fill="#E0E1E6"/>
<circle cx="37" cy="4" r="4" fill="#E0E1E6"/>
<circle cx="70" cy="4" r="4" fill="#E0E1E6"/>
<circle cx="103" cy="4" r="4" fill="#E0E1E6"/>
<circle cx="136" cy="4" r="4" fill="#E0E1E6"/>
<circle cx="169" cy="4" r="4" fill="#E0E1E6"/>
<circle cx="202" cy="4" r="4" fill="#E0E1E6"/>
<circle cx="235" cy="4" r="4" fill="#E0E1E6"/>
<circle cx="268" cy="4" r="4" fill="#E0E1E6"/>
<circle cx="4" cy="37" r="4" fill="#E0E1E6"/>
<circle cx="37" cy="37" r="4" fill="#E0E1E6"/>
<circle cx="70" cy="37" r="4" fill="#E0E1E6"/>
<circle cx="103" cy="37" r="4" fill="#E0E1E6"/>
<circle cx="136" cy="37" r="4" fill="#E0E1E6"/>
<circle cx="169" cy="37" r="4" fill="#E0E1E6"/>
<circle cx="202" cy="37" r="4" fill="#E0E1E6"/>
<circle cx="235" cy="37" r="4" fill="#E0E1E6"/>
<circle cx="268" cy="37" r="4" fill="#E0E1E6"/>
<circle cx="4" cy="70" r="4" fill="#E0E1E6"/>
<circle cx="37" cy="70" r="4" fill="#E0E1E6"/>
<circle cx="70" cy="70" r="4" fill="#E0E1E6"/>
<circle cx="103" cy="70" r="4" fill="#E0E1E6"/>
<circle cx="136" cy="70" r="4" fill="#E0E1E6"/>
<circle cx="169" cy="70" r="4" fill="#E0E1E6"/>
<circle cx="202" cy="70" r="4" fill="#E0E1E6"/>
<circle cx="235" cy="70" r="4" fill="#E0E1E6"/>
<circle cx="268" cy="70" r="4" fill="#E0E1E6"/>
<circle cx="4" cy="103" r="4" fill="#E0E1E6"/>
<circle cx="37" cy="103" r="4" fill="#E0E1E6"/>
<circle cx="70" cy="103" r="4" fill="#E0E1E6"/>
<circle cx="103" cy="103" r="4" fill="#E0E1E6"/>
<circle cx="136" cy="103" r="4" fill="#E0E1E6"/>
<circle cx="169" cy="103" r="4" fill="#E0E1E6"/>
<circle cx="202" cy="103" r="4" fill="#E0E1E6"/>
<circle cx="235" cy="103" r="4" fill="#E0E1E6"/>
<circle cx="268" cy="103" r="4" fill="#E0E1E6"/>
<circle cx="4" cy="136" r="4" fill="#E0E1E6"/>
<circle cx="37" cy="136" r="4" fill="#E0E1E6"/>
<circle cx="70" cy="136" r="4" fill="#E0E1E6"/>
<circle cx="103" cy="136" r="4" fill="#E0E1E6"/>
<circle cx="136" cy="136" r="4" fill="#E0E1E6"/>
<circle cx="169" cy="136" r="4" fill="#E0E1E6"/>
<circle cx="202" cy="136" r="4" fill="#E0E1E6"/>
<circle cx="235" cy="136" r="4" fill="#E0E1E6"/>
<circle cx="268" cy="136" r="4" fill="#E0E1E6"/>
<circle cx="4" cy="169" r="4" fill="#E0E1E6"/>
<circle cx="37" cy="169" r="4" fill="#E0E1E6"/>
<circle cx="70" cy="169" r="4" fill="#E0E1E6"/>
<circle cx="103" cy="169" r="4" fill="#E0E1E6"/>
<circle cx="136" cy="169" r="4" fill="#E0E1E6"/>
<circle cx="169" cy="169" r="4" fill="#E0E1E6"/>
<circle cx="202" cy="169" r="4" fill="#E0E1E6"/>
<circle cx="235" cy="169" r="4" fill="#E0E1E6"/>
<circle cx="268" cy="169" r="4" fill="#E0E1E6"/>
<circle cx="4" cy="202" r="4" fill="#E0E1E6"/>
<circle cx="37" cy="202" r="4" fill="#E0E1E6"/>
<circle cx="70" cy="202" r="4" fill="#E0E1E6"/>
<circle cx="103" cy="202" r="4" fill="#E0E1E6"/>
<circle cx="136" cy="202" r="4" fill="#E0E1E6"/>
<circle cx="169" cy="202" r="4" fill="#E0E1E6"/>
<circle cx="202" cy="202" r="4" fill="#E0E1E6"/>
<circle cx="235" cy="202" r="4" fill="#E0E1E6"/>
<circle cx="268" cy="202" r="4" fill="#E0E1E6"/>
<circle cx="4" cy="235" r="4" fill="#E0E1E6"/>
<circle cx="37" cy="235" r="4" fill="#E0E1E6"/>
<circle cx="70" cy="235" r="4" fill="#E0E1E6"/>
<circle cx="103" cy="235" r="4" fill="#E0E1E6"/>
<circle cx="136" cy="235" r="4" fill="#E0E1E6"/>
<circle cx="169" cy="235" r="4" fill="#E0E1E6"/>
<circle cx="202" cy="235" r="4" fill="#E0E1E6"/>
<circle cx="235" cy="235" r="4" fill="#E0E1E6"/>
<circle cx="268" cy="235" r="4" fill="#E0E1E6"/>
</g>
</svg>
