<svg width="114" height="24" viewBox="0 0 114 24" fill="none" xmlns="http://www.w3.org/2000/svg">
<g clip-path="url(#clip0_1639_7465)">
<path d="M38.6482 8.90016C37.8269 8.4159 36.8775 8.1736 35.9162 8.20291C34.9943 8.16821 34.0847 8.41636 33.3174 8.91188L33.1236 9.06422V8.4783H30.7005V23.7476H33.4749V18.6676C34.2749 19.1188 35.1864 19.3516 36.1123 19.3413C37.0383 19.331 37.944 19.0779 38.733 18.609C39.4946 18.1074 40.1034 17.4174 40.4958 16.611C40.9202 15.717 41.1274 14.7409 41.1016 13.7575C41.1188 12.7655 40.8991 11.7829 40.4594 10.8865C40.0541 10.0771 39.4278 9.39021 38.6482 8.90016ZM37.9092 15.3805C37.7517 15.8418 37.4592 16.2489 37.0671 16.5524C36.6482 16.8538 36.135 17.0069 35.6133 16.986C35.0898 17.0129 34.572 16.8707 34.1413 16.5817C33.749 16.2968 33.4605 15.8988 33.3174 15.445C33.1484 14.8977 33.0667 14.3287 33.0751 13.7575C33.0667 13.1883 33.1484 12.6212 33.3174 12.0759C33.4516 11.6334 33.7221 11.2409 34.0928 10.9509C34.4961 10.6668 34.9876 10.5241 35.4861 10.5466C36.0275 10.5252 36.5607 10.6799 37.0005 10.9861C37.4035 11.2858 37.7068 11.6932 37.8728 12.1579C38.0703 12.6694 38.1688 13.2116 38.1636 13.7575C38.177 14.3087 38.0909 14.858 37.9092 15.3805Z" fill="#19191A"/>
<path d="M48.7525 8.4494C48.4264 8.47168 48.1036 8.52666 47.7893 8.61346C47.4869 8.69897 47.1976 8.82311 46.9291 8.9826C46.5849 9.17195 46.2823 9.42476 46.0386 9.72673C45.9252 9.86891 45.8239 10.0198 45.7358 10.1779V8.47284H43.3127V19.0196H46.0992V13.6407C46.0946 13.2705 46.154 12.9022 46.2749 12.5509C46.3805 12.2376 46.5533 11.9494 46.7819 11.7051C47.0105 11.4608 47.2898 11.2658 47.6015 11.133C47.9428 10.9796 48.3104 10.8883 48.6859 10.8634C49.0422 10.8316 49.4015 10.8634 49.7459 10.9572V8.47284C49.4164 8.43285 49.0836 8.425 48.7525 8.4494Z" fill="#19191A"/>
<path d="M54.6291 4.65234H51.8729V7.00192H54.6291V4.65234Z" fill="#19191A"/>
<path d="M54.6291 8.47266H51.8729V19.0487H54.6291V8.47266Z" fill="#19191A"/>
<path d="M67.6338 10.9918C67.4996 10.5109 67.2825 10.0553 66.9917 9.64413C66.6682 9.19439 66.2355 8.82823 65.7317 8.57774C65.0797 8.27227 64.3597 8.12735 63.6358 8.15587C62.6973 8.12151 61.7694 8.35811 60.9704 8.83555C60.6456 9.04127 60.3502 9.28753 60.092 9.56796V8.47227H57.6689V19.019H60.4615V13.6812C60.4404 13.1429 60.5184 12.6052 60.6917 12.0933C60.8137 11.7488 61.0218 11.4389 61.2975 11.191C61.5113 10.995 61.7712 10.8522 62.0547 10.775C62.3004 10.7033 62.5553 10.6659 62.8119 10.6636C63.298 10.635 63.7795 10.7695 64.1749 11.0445C64.4716 11.3031 64.693 11.6324 64.817 11.9996C64.9546 12.3633 65.0382 12.744 65.0654 13.1304C65.0654 13.5054 65.1078 13.8101 65.1078 14.0562V19.0483H67.9004V13.1128C67.9004 12.9371 67.8883 12.6558 67.864 12.2691C67.8296 11.8372 67.7525 11.4095 67.6338 10.9918Z" fill="#19191A"/>
<path d="M73.9464 5.53125H71.1901V8.4609H69.3243V10.5468H71.1901V14.578C71.1901 15.2167 71.1901 15.7499 71.1901 16.2772C71.2104 16.7954 71.3578 17.3015 71.6202 17.7537C71.9052 18.2608 72.3634 18.6564 72.9165 18.8729C73.5344 19.1157 74.1942 19.243 74.8611 19.2479C75.6066 19.2619 76.3517 19.201 77.0842 19.0662V16.8338C76.4988 16.917 75.9064 16.9445 75.3154 16.9159C75.086 16.9175 74.8596 16.8649 74.6559 16.7628C74.4521 16.6607 74.2772 16.5122 74.1463 16.3299C74.0068 16.0884 73.9357 15.8155 73.9403 15.5389C73.9403 15.2108 73.9403 14.8417 73.9403 14.4315V10.5468H77.0963V8.47262H73.9403L73.9464 5.53125Z" fill="#19191A"/>
<path d="M86.7712 8.95896C85.8972 8.427 84.8772 8.16348 83.8454 8.20311C82.8414 8.18317 81.8508 8.42828 80.9801 8.91209C80.1501 9.38664 79.4743 10.0768 79.0295 10.9042C78.5382 11.8377 78.2947 12.8747 78.3207 13.9218C78.3001 14.9044 78.5488 15.8748 79.0416 16.7342C79.5144 17.5442 80.2079 18.213 81.0467 18.6678C81.9578 19.1345 82.9784 19.3646 84.0089 19.3358C85.0375 19.342 86.0464 19.0634 86.9166 18.533C87.7991 18.0045 88.4829 17.2158 88.8672 16.2831L86.117 15.5155C85.9337 15.9252 85.625 16.2708 85.2326 16.5057C84.8128 16.7444 84.3321 16.8642 83.8454 16.8514C83.4774 16.8745 83.109 16.8133 82.7701 16.6728C82.4311 16.5324 82.1313 16.3165 81.8948 16.0428C81.5551 15.588 81.3461 15.0543 81.289 14.496H88.9641C89.0993 13.3673 88.9604 12.2237 88.5582 11.1562C88.2123 10.2624 87.5879 9.49458 86.7712 8.95896ZM83.9665 10.4882C84.2941 10.4604 84.6237 10.5104 84.9268 10.634C85.2298 10.7576 85.497 10.9509 85.7051 11.1972C85.9657 11.5989 86.1235 12.0548 86.1655 12.5273H81.3678C81.4477 12.09 81.6278 11.6756 81.8948 11.3144C82.1478 11.0278 82.4675 10.8035 82.8277 10.6598C83.1879 10.5162 83.5782 10.4574 83.9665 10.4882Z" fill="#19191A"/>
<path d="M98.6251 9.0645C98.5645 9.01762 98.5039 8.95903 98.4373 8.91216C97.6629 8.41259 96.7443 8.16429 95.8143 8.20318C94.8487 8.1818 93.8975 8.43217 93.0762 8.92387C92.2938 9.41241 91.6651 10.0995 91.2589 10.9102C90.817 11.8059 90.5971 12.7889 90.6168 13.7812C90.5935 14.7644 90.8006 15.74 91.2226 16.6347C91.6172 17.4415 92.228 18.1314 92.9914 18.6327C93.7894 19.1247 94.7233 19.37 95.6689 19.3358C96.5906 19.3634 97.5003 19.1291 98.2859 18.662V19.7284C98.3104 20.082 98.2006 20.4321 97.9769 20.7128C97.7422 20.9791 97.4393 21.1812 97.0985 21.2987C96.7269 21.4339 96.3325 21.5014 95.9355 21.4979C95.5628 21.5006 95.195 21.4162 94.8633 21.2518C94.541 21.0964 94.278 20.8461 94.1121 20.537L91.5618 21.7089C91.8397 22.1714 92.2056 22.579 92.6401 22.91C93.0897 23.2588 93.5978 23.5303 94.1424 23.7127C94.7124 23.9071 95.3129 24.0042 95.9173 23.9998C96.6739 24.0068 97.4274 23.9041 98.1526 23.6952C98.7989 23.512 99.3949 23.1917 99.8972 22.7577C100.379 22.3322 100.719 21.7772 100.872 21.1639C100.935 20.9374 100.978 20.7061 101 20.4725C101.024 20.2382 101.036 19.9921 101.036 19.7343V8.47271H98.613L98.6251 9.0645ZM97.5892 16.5703C97.1577 16.8576 96.6405 16.9997 96.1172 16.9745C95.5938 16.9944 95.079 16.8415 94.6573 16.541C94.2687 16.2343 93.977 15.8283 93.8153 15.3691C93.6274 14.8476 93.5351 14.2983 93.5427 13.7461C93.537 13.1968 93.6334 12.651 93.8274 12.1348C93.9957 11.6696 94.301 11.2623 94.7058 10.9629C95.1456 10.6568 95.6788 10.502 96.2202 10.5235C96.7168 10.5009 97.2064 10.6436 97.6074 10.9278C97.982 11.2143 98.2534 11.6081 98.3828 12.0527C98.5548 12.5974 98.6366 13.165 98.6251 13.7344C98.6365 14.3057 98.5547 14.8751 98.3828 15.4218C98.2528 15.8772 97.9745 16.2799 97.5892 16.5703Z" fill="#19191A"/>
<path d="M111.243 8.47266L108.39 15.6679L105.513 8.47266H102.66L107.07 18.9667L105.27 23.7478H107.821L114 8.47266H111.243Z" fill="#19191A"/>
<path d="M12.9025 9.19323L10.1584 13.7928C9.40714 11.4528 9.26453 8.96974 9.74322 6.56372C10.2219 4.15769 11.3071 1.90313 12.9025 0C12.9025 0 16.4826 1.86326 20.2384 8.162C23.9942 14.4607 24.1456 18.8376 24.1456 18.8376C24.1456 18.8376 20.0567 13.4178 14.8289 12.3924L12.9025 9.19323Z" fill="#CD99F6"/>
<path d="M24.1464 18.8379C24.1464 18.8379 24.0495 15.9961 22.0505 11.6075C19.6166 11.1125 17.0823 11.3963 14.8297 12.4161C20.0575 13.418 24.1464 18.8379 24.1464 18.8379Z" fill="url(#paint0_linear_1639_7465)"/>
<path d="M8.22678 17.0213H13.7211C12.0016 18.8204 9.84985 20.1814 7.45651 20.9837C5.06316 21.786 2.50215 22.0048 0.000445008 21.6208C0.000445008 21.6208 -0.120708 17.6892 3.63506 11.3905C7.39082 5.09177 11.2435 2.7832 11.2435 2.7832C11.2435 2.7832 8.4388 8.91788 10.1531 13.7928L8.22678 17.0213Z" fill="#6CCADA"/>
<path d="M11.244 2.7832C11.244 2.7832 8.75426 4.28318 5.79205 8.15618C6.57082 10.4387 8.09241 12.4161 10.1294 13.7928C8.43926 8.91788 11.244 2.7832 11.244 2.7832Z" fill="url(#paint1_linear_1639_7465)"/>
<path d="M17.5674 17.0273L14.8294 12.4219C17.3001 12.9635 19.5946 14.0864 21.5093 15.6911C23.424 17.2958 24.8998 19.3326 25.8059 21.621C25.8059 21.621 22.353 23.6834 14.8294 23.6834C7.30572 23.6834 3.31976 21.621 3.31976 21.621C3.31976 21.621 10.2195 20.9003 13.7269 17.0273H17.5674Z" fill="#4998E1"/>
<path d="M3.31976 21.621C3.31976 21.621 5.91245 22.9569 10.8434 23.4784C12.5024 21.6897 13.5145 19.4274 13.7269 17.0332C10.2195 20.9003 3.31976 21.621 3.31976 21.621Z" fill="url(#paint2_linear_1639_7465)"/>
<path d="M13.7207 17.0273L3.59226 19.4941L2.86534 20.8359L2.58063 21.8144C4.67576 21.7871 6.74335 21.3487 8.65821 20.5259C10.5731 19.703 12.2953 18.5128 13.7207 17.0273Z" fill="#6CCADA"/>
<path d="M9.55947 11.0389L10.1652 13.7811L12.9094 9.18153L13.1274 9.54481L14.5389 7.50577V1.75781L11.8917 1.34766C9.97469 4.21824 9.15014 7.64458 9.55947 11.0389Z" fill="#CD99F6"/>
</g>
<defs>
<linearGradient id="paint0_linear_1639_7465" x1="22.626" y1="15.1406" x2="15.1492" y2="14.0212" gradientUnits="userSpaceOnUse">
<stop stop-color="#8F72DA" stop-opacity="0"/>
<stop offset="1" stop-color="#8F72DA"/>
</linearGradient>
<linearGradient id="paint1_linear_1639_7465" x1="8.43926" y1="5.00388" x2="9.922" y2="12.8096" gradientUnits="userSpaceOnUse">
<stop stop-color="#45A6C8" stop-opacity="0"/>
<stop offset="1" stop-color="#45A6C8"/>
</linearGradient>
<linearGradient id="paint2_linear_1639_7465" x1="7.7661" y1="21.8906" x2="13.7641" y2="15.7319" gradientUnits="userSpaceOnUse">
<stop stop-color="#3B75A7" stop-opacity="0"/>
<stop offset="1" stop-color="#3B75A7"/>
</linearGradient>
<clipPath id="clip0_1639_7465">
<rect width="114" height="24" fill="white"/>
</clipPath>
</defs>
</svg>
