<svg width="20" height="22" viewBox="0 0 20 22" fill="none" xmlns="http://www.w3.org/2000/svg">
<path d="M17.3353 4.35918C17.3203 4.2501 17.225 4.18958 17.1459 4.18299C17.0675 4.1764 15.5298 4.15304 15.5298 4.15304C15.5298 4.15304 14.2437 2.90418 14.1167 2.77714C13.9897 2.6501 13.7416 2.68845 13.6451 2.71721C13.6439 2.71781 13.4036 2.79212 12.9991 2.91736C12.9314 2.69804 12.8319 2.42837 12.6899 2.15751C12.2321 1.28379 11.5615 0.821761 10.7513 0.820566C10.7501 0.820566 10.7495 0.820566 10.7483 0.820566C10.6919 0.820566 10.6362 0.825959 10.5799 0.83075C10.5559 0.801986 10.532 0.773824 10.5068 0.746255C10.1538 0.368725 9.7014 0.184753 9.15906 0.200933C8.11275 0.230895 7.07066 0.986558 6.2257 2.32889C5.63124 3.27332 5.17879 4.45987 5.05056 5.37852C3.84904 5.75065 3.00888 6.01071 2.9903 6.01672C2.38385 6.20727 2.36468 6.22585 2.28557 6.79756C2.22685 7.2296 0.640015 19.5 0.640015 19.5L13.9381 21.8L19.7018 20.3671C19.7018 20.3671 17.3503 4.46826 17.3353 4.35918ZM12.3333 3.12351C12.0271 3.21819 11.6789 3.32606 11.3014 3.44291C11.2936 2.91317 11.2307 2.17608 10.9838 1.53907C11.7778 1.68949 12.1685 2.58777 12.3333 3.12351ZM10.6056 3.65864C9.90872 3.87436 9.14826 4.10988 8.38542 4.346C8.59994 3.52441 9.00685 2.70643 9.50664 2.17009C9.6924 1.97054 9.95246 1.74821 10.2605 1.62117C10.5499 2.22522 10.6128 3.08036 10.6056 3.65864ZM9.18001 0.897268C9.42571 0.891875 9.63246 0.94581 9.80925 1.06206C9.5264 1.20888 9.25312 1.41982 8.99666 1.69488C8.33206 2.408 7.8227 3.51482 7.61955 4.5827C6.98613 4.77865 6.3665 4.97103 5.79601 5.14722C6.15619 3.46629 7.56501 0.94401 9.18001 0.897268Z" fill="#95BF47"/>
<path d="M17.1465 4.18351C17.0681 4.17692 15.5304 4.15356 15.5304 4.15356C15.5304 4.15356 14.2444 2.9047 14.1173 2.77765C14.07 2.73031 14.0059 2.70574 13.9387 2.69556L13.9393 21.7993L19.7024 20.3671C19.7024 20.3671 17.3509 4.46877 17.3359 4.35969C17.3209 4.25061 17.2251 4.1901 17.1465 4.18351Z" fill="#5E8E3E"/>
<path d="M10.7441 7.14702L10.0748 9.65129C10.0748 9.65129 9.32809 9.31152 8.443 9.36725C7.14498 9.44936 7.13119 10.2679 7.1444 10.4735C7.21511 11.5935 10.1616 11.838 10.3271 14.4615C10.4571 16.5254 9.23219 17.9372 7.4674 18.0487C5.34901 18.1823 4.18286 16.9329 4.18286 16.9329L4.63171 15.0236C4.63171 15.0236 5.80564 15.9093 6.74527 15.85C7.35893 15.8111 7.57824 15.3119 7.55606 14.9589C7.4638 13.4979 5.06436 13.5842 4.91276 11.1836C4.78511 9.16352 6.11189 7.11646 9.03923 6.93188C10.167 6.85938 10.7441 7.14702 10.7441 7.14702Z" fill="white"/>
</svg>
