<svg width="16" height="16" viewBox="0 0 16 16" fill="none" xmlns="http://www.w3.org/2000/svg">
<path d="M2.27273 15H1.63636C1.46759 15 1.30573 14.933 1.18639 14.8136C1.06705 14.6943 1 14.5324 1 14.3637V13.7273" stroke="#AAADB3" stroke-width="1.5" stroke-linecap="round" stroke-linejoin="round"/>
<path d="M6.72745 4.81812H4.81836" stroke="#AAADB3" stroke-width="1.5" stroke-linecap="round" stroke-linejoin="round"/>
<path d="M6.72683 15H5.4541" stroke="#AAADB3" stroke-width="1.5" stroke-linecap="round" stroke-linejoin="round"/>
<path d="M11.1816 11.1818V9.27271" stroke="#AAADB3" stroke-width="1.5" stroke-linecap="round" stroke-linejoin="round"/>
<path d="M1 10.5454V9.27271" stroke="#AAADB3" stroke-width="1.5" stroke-linecap="round" stroke-linejoin="round"/>
<path d="M9.90918 15H10.5455C10.7143 15 10.8762 14.933 10.9955 14.8136C11.1149 14.6943 11.1819 14.5324 11.1819 14.3637V13.7273" stroke="#AAADB3" stroke-width="1.5" stroke-linecap="round" stroke-linejoin="round"/>
<path d="M9.90918 4.81812H10.5455C10.7143 4.81812 10.8762 4.88516 10.9955 5.0045C11.1149 5.12384 11.1819 5.2857 11.1819 5.45448V6.09084" stroke="#AAADB3" stroke-width="1.5" stroke-linecap="round" stroke-linejoin="round"/>
<path d="M2.27273 4.81812H1.63636C1.46759 4.81812 1.30573 4.88516 1.18639 5.0045C1.06705 5.12384 1 5.2857 1 5.45448V6.09084" stroke="#AAADB3" stroke-width="1.5" stroke-linecap="round" stroke-linejoin="round"/>
<path d="M11.182 11.1818H14.3638C14.5326 11.1818 14.6944 11.1148 14.8138 10.9954C14.9331 10.8761 15.0002 10.7142 15.0002 10.5455V1.63636C15.0002 1.46759 14.9331 1.30573 14.8138 1.18639C14.6944 1.06705 14.5326 1 14.3638 1H5.45472C5.28595 1 5.12409 1.06705 5.00475 1.18639C4.8854 1.30573 4.81836 1.46759 4.81836 1.63636V4.81818" stroke="#AAADB3" stroke-width="1.5" stroke-linecap="round" stroke-linejoin="round"/>
</svg>
