<svg width="232" height="222" viewBox="0 0 232 222" fill="none" xmlns="http://www.w3.org/2000/svg">
<path d="M245.307 243.981C301.342 188.202 301.342 97.7651 245.307 41.9856C189.272 -13.794 98.4218 -13.794 42.3869 41.9856C-13.648 97.7651 -13.648 188.202 42.3869 243.981C98.4218 299.761 189.272 299.761 245.307 243.981Z" fill="url(#paint0_linear_1643_7513)"/>
<path d="M144.486 30.4242L145.374 39.3426L143.238 44.3402L138.55 49.614L137.441 53.5071L139.771 59.0294L143.571 60.8517L139.078 64.3031C139.078 64.3031 140.686 66.3463 135.333 65.0486L129.98 63.7785L123.128 62.5636L121.131 64.7449L119.245 68.0858L111.784 70.0186L110.48 72.9454L112.2 84.3764C112.2 84.3764 112.2 86.9719 106.652 86.3092L101.105 85.6465L99.1354 82.0295L100.273 77.3356L96.5558 70.0738L96.9996 66.2359L100.3 59.1122C100.3 59.1122 105.21 62.039 104.794 55.6884C104.655 52.5638 104.284 49.4537 103.684 46.3835L100.217 41.7172L97.0551 44.4783L92.4229 42.3246L91.4799 36.8024L92.201 34.0413C92.201 34.0413 85.7659 31.86 85.4608 32.8816C85.1557 33.9032 81.9659 36.4987 81.9659 36.4987L77.4447 35.5323L73.8111 28.878L72.8125 26.6691L80.8009 24.1013L84.7396 28.4362L88.6784 23.6595H86.6813C86.6813 23.6595 81.1615 15.6246 93.4492 19.9872C105.737 24.3498 106.042 21.3402 105.737 24.3774L105.432 27.4146L107.873 29.9824L116.721 32.1085L131.893 30.0377L144.486 30.4242Z" fill="url(#paint1_linear_1643_7513)"/>
<path d="M52.8685 173.836L45.2961 176.79L36.9749 174.029L35.588 169.308L32.1485 168.535L28.9864 168.838L28.0156 162.626L27.3499 159.865L22.2462 149.731L30.5675 153.017L37.1135 160.748L36.9194 164.476L35.8376 166.823L36.7252 168.231H39.8873L39.6377 165.47L43.2435 166.243L44.3808 170.026C44.3808 170.026 55.1429 170.467 52.8685 173.836Z" fill="url(#paint2_linear_1643_7513)"/>
<path d="M209.809 23.5762C209.809 23.5762 209.751 23.6346 209.809 23.5762V23.5762Z" fill="url(#paint3_linear_1643_7513)"/>
<path d="M212.33 218.262C211.752 218.317 212.33 218.262 212.33 218.262V218.262Z" fill="url(#paint4_linear_1643_7513)"/>
<path d="M91.7568 43.9805V44.8916C91.8671 44.5979 91.8671 44.2742 91.7568 43.9805V43.9805Z" fill="url(#paint5_linear_1643_7513)"/>
<path d="M252.607 131.315C252.703 131.373 252.813 131.404 252.926 131.404C253.039 131.404 253.149 131.373 253.245 131.315L253.023 132.944L256.712 127.284L264.312 132.143L274.769 138.135L275.74 142.415L280.428 145.949L284.477 143.436V136.948L287.057 133.91C286.583 126.477 285.526 119.091 283.895 111.821C281.676 111.242 281.953 112.539 281.482 110.441L280.927 107.68C280.927 107.68 280.511 103.952 280.483 102.71C280.456 101.467 279.707 102.71 279.707 102.71L277.377 109.502L274.187 108.398L273.771 105.775C273.771 105.775 272.217 106.962 272.994 103.842C273.771 100.722 272.162 102.544 273.799 100.722L275.407 98.8718C275.992 97.2836 276.164 95.5738 275.907 93.9018L275.407 91.6101L277.238 90.2571C267.115 64.9312 249.928 43.0145 227.705 27.0908C205.482 11.167 179.148 1.9002 151.809 0.382812L151.531 1.45965C151.531 1.45965 145.984 4.99387 150.006 5.96026C154.028 6.92666 147.981 6.26399 153.972 6.95427C158.688 7.47888 159.048 7.2856 158.965 7.17516L162.377 9.93627L162.876 14.2712C162.876 14.2712 158.327 15.7622 167.48 14.2712C176.634 12.7802 169.339 9.88105 175.802 12.8631C182.265 15.8451 184.705 8.80421 182.376 14.3817C181.775 16.0166 181.071 17.612 180.267 19.1584L182.431 20.8427L190.919 20.18L195.884 21.6434L186.453 23.9075L186.287 25.8403L191.834 32.4117C191.834 32.4117 195.079 30.6446 192.638 35.449C190.198 40.2533 190.308 34.8415 190.53 39.3974C190.697 42.6279 190.53 43.0697 190.253 43.042L194.081 45.8032L195.079 50.2209L192.555 53.4791L187.008 54.4454L187.951 48.1501L187.451 45.0577L187.895 41.6615L184.983 43.2353L181.46 46.3002L179.047 49.5859L177.716 50.2762L170.92 48.4538L169.145 47.1561L167.12 46.521L166.621 50.3866L168.424 55.9088L170.864 63.4467C170.864 63.4467 170.199 71.4539 168.618 73.6076L167.037 75.7336L165.178 80.8417L165.927 85.6184L168.701 87.8825L172.917 88.49L175.413 84.155L180.961 84.7349L183.291 87.496L186.065 91.7757L189.92 91.9966L191.473 87.6341L186.176 84.3483C186.176 84.3483 181.571 83.2991 184.539 80.7865C187.507 78.2739 193.11 80.7865 187.479 78.2739L181.932 75.8165L179.879 74.8777L180.794 69.5211L183.568 66.263L186.619 66.5667L185.926 70.3219L190.419 72.6412L197.132 71.7853L198.463 76.065L196.855 84.3483L191.862 85.9222L193.332 89.1803C193.332 89.1803 198.547 88.0482 192.777 91.7757C187.008 95.5032 193.554 89.5944 187.618 94.5368C181.682 99.4792 182.32 98.3748 182.32 98.3748L177.466 102.903L175.192 108.619L171.391 106.741L166.51 110.027L162.543 106.741L161.323 98.8718C161.323 98.8718 164.762 93.3496 160.99 96.7181C157.218 100.087 158.216 95.5308 157.245 100.142C156.274 104.753 157.939 100.501 156.219 103.925C154.499 107.348 157.661 107.017 154.527 107.348L151.309 107.763L149.756 109.916L146.982 119.332C146.982 119.332 151.309 123.308 154.721 120.077L158.05 116.874L163.292 115.77L164.402 119.856L165.678 124.108L169.117 124.688C169.117 124.688 182.681 118.973 173.083 126.759C163.486 134.545 174.581 131.287 174.581 131.287L170.393 133.027L163.486 134.545L159.853 143.022C159.853 143.022 154.305 138.963 159.853 146.639C165.4 154.315 162.404 152.907 165.4 154.315L168.479 155.751L172.168 154.867L177.244 153.68L181.793 154.398L183.013 148.876C183.013 148.876 184.289 148.876 185.011 144.458C185.732 140.04 188.006 144.154 185.76 139.902C183.513 135.65 181.488 139.129 183.513 135.677L185.51 132.198L189.449 129.851L191.862 126.952L193.692 123.363L197.742 121.789L201.709 120.85L206.147 124.771L210.64 126.152C210.64 126.152 212.998 120.878 215.161 124.495C216.604 126.952 217.02 127.256 217.131 127.256L215.245 132.337L211.694 134.932L212.166 137.086H214.718L218.268 137.334L218.85 132.972L219.655 127.836L222.429 125.765L220.182 121.513L217.88 118.669L213.136 118.917L206.091 119.525L202.208 117.095L209.447 115.521L217.38 116.515L222.234 120.215L225.341 124.799L232.026 126.041L233.218 130.569C233.218 130.569 238.766 129.631 235.77 125.461C232.775 121.292 236.325 124.55 233.329 121.844C230.334 119.138 230.556 119.911 230.556 119.911L229.113 115.024L231.887 112.263L232.248 107.625L230.361 102.378L228.253 99.3688L228.975 94.7853H232.275L233.718 91.7205V86.8057L237.906 88.2139L242.094 91.5272C242.094 91.5272 243.87 91.7205 239.709 96.6353L235.521 101.55L234.217 108.536L235.382 114.058L238.322 115.521L242.843 114.859L246.921 111.518L247.892 107.431L251.608 110.027L254.854 120.022L252.857 124.854L251.414 132.198L252.441 131.149L252.607 131.315Z" fill="url(#paint6_linear_1643_7513)"/>
<path d="M281.676 168.037C281.676 168.037 280.012 169.252 278.902 164.586C277.793 159.92 271.746 164.586 277.682 159.92L283.618 155.171L281.676 151.94L277.488 149.648C277.488 149.648 275.38 153.293 270.387 146.887C265.394 140.482 274.52 138.604 265.422 140.564L256.324 142.552C256.324 142.552 255.353 150.201 253.911 143.519L252.468 136.809L252.995 132.944L251.387 135.539C251.404 135.448 251.392 135.353 251.352 135.269C251.312 135.184 251.247 135.115 251.165 135.07L250.776 134.766L251.303 132.005L249.528 133.8L242.039 136.091L238.128 137.555L233.44 138.383L231.998 141.503L233.246 145.369L228.531 147.025H224.259L221.902 149.786L219.821 152.548L211.167 155.309L196.605 149.786L172.113 165.249L165.539 173.919L154.777 183.638L147.371 191.286L146.289 211.276L146.677 221.52C150.795 223.363 154.319 226.307 156.857 230.024C162.238 236.982 156.857 221.437 162.044 234.939C167.231 248.441 151.31 245.68 164.069 246.729C176.828 247.778 173.167 248.165 173.167 248.165C173.167 248.165 176.079 248.524 187.729 240.434L199.406 232.344L205.675 235.353C206.202 235.105 208.144 234.415 213.996 232.592L225.091 229.003L229.391 242.284L225.397 251.948L232.886 255.013C260.59 233.184 279.211 201.932 285.171 167.264L281.676 168.037Z" fill="url(#paint7_linear_1643_7513)"/>
<path d="M0.36145 142.995C0.362118 148.336 0.658433 153.673 1.24905 158.982L7.37905 160.141L8.8214 166.795L9.57031 174.333L13.4536 181.291L20.9427 192.833L22.607 200.619L16.8376 207.577V209.62C25.8726 226.633 38.2624 241.657 53.2657 253.793C68.269 265.929 85.5774 274.927 104.155 280.25L104.017 277.82C104.017 277.82 102.158 275.39 106.347 275.059C110.535 274.727 109.731 272.739 110.535 274.672L111.312 276.577L115.5 276.191C117.289 275.328 119.144 274.608 121.048 274.037L125.347 272.629L124.265 267.935C124.265 267.935 121.713 272.574 122.74 264.677C123.766 256.78 118.107 260.314 123.794 256.78L129.341 253.218L130.09 248.745L127.316 245.404L120.992 244.631H115.445C115.445 244.631 119.189 247.862 113.364 243.831C107.539 239.799 108.51 243.499 107.539 239.799C106.569 236.099 111.755 237.784 106.569 236.072C101.382 234.36 107.401 234.194 101.382 234.388C99.7035 234.564 98.0114 234.564 96.3334 234.388C96.0488 235.07 95.5179 235.621 94.8453 235.933C94.1728 236.244 93.4073 236.294 92.6997 236.072L89.926 235.326L88.7887 231.847C88.7887 231.847 91.3406 233.2 88.4282 228.286C85.5157 223.371 89.7041 226.767 85.6544 223.371C81.6047 219.975 89.6209 224.779 81.5215 219.975L73.3944 215.143C73.3944 215.143 73.7827 220.72 70.8703 219.947L68.0965 219.008L67.5141 213.072L66.8206 205.948L61.0235 202.303L56.7796 198.962C55.3343 199.568 53.7382 199.722 52.2029 199.404C49.7343 198.852 53.4234 203.491 49.7343 198.852C46.0452 194.213 47.3766 197.278 46.0729 194.213C44.7693 191.149 48.8467 193.523 44.7693 191.121L40.7196 188.719C40.7196 188.719 43.632 187.835 36.4203 189.934L29.264 192.032L27.461 195.097L23.8829 187.228L20.2215 184.798L18.7514 182.037L19.75 175.769L18.9456 169.446L16.3938 166.105L11.0404 162.626L10.4857 159.064L11.7338 155.364L13.509 150.919L12.0944 146.667L7.87832 148.876L4.43887 150.615L2.10892 147.219L0.888465 137.113L4.82719 134.131L6.74109 131.149L9.51484 124.274L15.2842 125.71V130.1L17.004 131.343L21.7471 132.475L22.5515 138.798L21.4697 142.111L19.5558 145.093L22.1632 147.054L25.9355 144.486L27.7661 138.494C27.7661 138.494 23.7165 137.969 27.3778 134.352C31.0392 130.735 21.3865 132.972 30.2903 131.591C39.194 130.211 21.969 137.417 35.8378 131.067C49.7065 124.716 48.3751 129.658 49.7065 124.716L51.0379 119.774L56.8074 117.013L60.6629 113.423L63.9359 111.905L66.7097 116.239C66.7097 116.239 67.9024 118.145 70.1214 116.239L72.3404 114.224L70.8703 106.382C70.8703 106.382 69.4279 105.913 69.4557 102.323V98.7064C69.4557 98.7064 69.4557 99.3138 73.5886 99.9213L77.666 100.529L81.3828 103.566L81.6325 105.941L80.8835 108.702L87.9011 112.622L91.4238 115.881L93.726 116.654L93.0603 110.607C93.0603 110.607 95.6399 110.358 92.8662 104.643C90.0924 98.9273 93.3932 105.996 90.0924 98.8997L86.9026 91.8312L85.0442 85.2045L81.6879 81.5323L78.9142 78.7711L77.9711 75.2369C77.9711 75.2369 76.6397 80.1793 74.2543 78.4122L71.8688 76.6451L71.6192 70.0736L70.3155 66.7879L66.2104 68.1961L62.9928 75.5406L60.6351 77.9704L54.5606 80.7315L52.0088 82.1673L49.4846 81.0076C49.4846 81.0076 53.2847 80.842 51.9255 75.1817C50.5664 69.5214 52.5635 75.7063 50.5664 69.6595C48.5693 63.6126 42.2451 68.2513 48.5416 63.447C54.838 58.6426 53.9226 58.9187 53.9226 58.9187L62.9096 56.1576L68.0688 57.4553L71.7024 51.5189L78.2762 48.7578L82.4646 50.3593L77.8047 56.4889L72.7287 57.9799L73.9492 64.2753L81.0777 69.1901L80.7171 71.9512L85.9318 67.6438L86.4311 62.3977L88.761 59.6366L90.1756 57.7038L89.5377 45.1408L88.4004 40.1984C88.234 40.6678 87.4296 40.861 84.6004 39.6185L79.3302 37.3268L77.7215 37.1059L73.644 40.4745L73.9214 43.4289L69.844 44.837L69.4002 42.2692L69.9549 37.6305L66.9038 39.3148L62.7709 38.3208L62.1607 34.1791L65.8221 32.4396L68.263 30.783V27.5801L66.3768 24.5705L65.4892 23.2451C45.467 36.2202 29.0209 53.9718 17.6465 74.8858C6.27209 95.7998 0.330286 119.212 0.36145 142.995V142.995Z" fill="url(#paint8_linear_1643_7513)"/>
<g style="mix-blend-mode:screen">
<path d="M218.794 54.2798C214.356 60.658 201.653 59.5811 190.419 51.85C179.185 44.1189 173.776 32.7155 178.048 26.3097C182.319 19.9039 195.19 21.0084 206.423 28.7395C217.657 36.4706 223.205 47.7636 218.794 54.2798Z" fill="#7DD171"/>
</g>
<path d="M166.093 62.563C166.814 61.8175 167.563 61.0996 168.34 60.3818C168.641 60.0922 168.997 59.8667 169.388 59.719C169.78 59.5712 170.197 59.5043 170.615 59.5224C171.033 59.5405 171.442 59.6432 171.819 59.8242C172.196 60.0051 172.532 60.2606 172.806 60.575L173.777 61.6795C174.293 62.2856 174.553 63.068 174.502 63.8614C174.45 64.6548 174.09 65.3971 173.499 65.9316L171.419 67.9472C170.847 68.5121 170.075 68.829 169.269 68.829C168.464 68.829 167.691 68.5121 167.12 67.9472L166.066 66.9256C165.774 66.6406 165.542 66.3001 165.385 65.9244C165.228 65.5487 165.149 65.1454 165.151 64.7385C165.154 64.3315 165.239 63.9293 165.401 63.5556C165.562 63.1819 165.798 62.8443 166.093 62.563V62.563Z" fill="#0E86F4"/>
<path d="M156.108 73.6074C156.774 72.8066 157.44 72.0335 158.133 71.2604C158.647 70.6454 159.384 70.2569 160.184 70.1794C160.983 70.1018 161.782 70.3415 162.405 70.8463L163.487 71.8126C164.084 72.3567 164.444 73.1113 164.491 73.9158C164.537 74.7203 164.267 75.5112 163.736 76.12L161.822 78.3013C161.309 78.9163 160.572 79.3048 159.772 79.3823C158.972 79.4599 158.174 79.2202 157.551 78.7154L156.386 77.7766C155.818 77.2455 155.474 76.52 155.423 75.7464C155.371 74.9727 155.616 74.2084 156.108 73.6074V73.6074Z" fill="#0E86F4"/>
<path d="M146.955 85.0109L148.813 82.5259C149.317 81.8783 150.059 81.4565 150.876 81.3529C151.692 81.2494 152.517 81.4726 153.168 81.9736L154.333 82.8848C154.966 83.3806 155.378 84.1034 155.482 84.8982C155.585 85.693 155.372 86.4967 154.888 87.1369C154.277 87.91 153.695 88.7107 153.085 89.5115C152.599 90.1463 151.885 90.5677 151.092 90.6863C150.3 90.8049 149.492 90.6112 148.841 90.1465L147.648 89.2906C147.317 89.0573 147.036 88.7608 146.822 88.4182C146.608 88.0757 146.464 87.694 146.399 87.2956C146.335 86.8971 146.351 86.4898 146.446 86.0975C146.541 85.7053 146.714 85.3358 146.955 85.0109Z" fill="#0E86F4"/>
<path d="M138.578 97.0772L140.298 94.4817C140.759 93.8065 141.47 93.3405 142.276 93.1853C143.081 93.0301 143.916 93.1984 144.597 93.6534L145.817 94.5093C146.48 94.9625 146.936 95.6574 147.086 96.4432C147.237 97.229 147.07 98.0422 146.622 98.7062L145.013 101.164C144.58 101.838 143.897 102.315 143.113 102.49C142.329 102.666 141.506 102.527 140.825 102.102L139.549 101.219C138.885 100.783 138.415 100.111 138.235 99.3405C138.054 98.5701 138.177 97.7601 138.578 97.0772V97.0772Z" fill="#0E86F4"/>
<path d="M131.005 109.641C131.504 108.729 132.031 107.818 132.558 106.879C132.761 106.534 133.031 106.232 133.352 105.991C133.673 105.75 134.038 105.574 134.428 105.474C134.817 105.374 135.222 105.352 135.62 105.408C136.018 105.464 136.401 105.599 136.747 105.803L138.023 106.548C138.715 106.957 139.218 107.62 139.426 108.394C139.633 109.168 139.528 109.992 139.132 110.69C138.633 111.546 138.161 112.402 137.69 113.285C137.293 113.988 136.633 114.507 135.854 114.729C135.075 114.952 134.24 114.859 133.529 114.472L132.225 113.755C131.522 113.364 131 112.715 130.772 111.946C130.543 111.176 130.627 110.349 131.005 109.641V109.641Z" fill="#0E86F4"/>
<path d="M124.238 122.673C124.681 121.734 125.125 120.795 125.597 119.911C125.781 119.552 126.036 119.232 126.345 118.97C126.655 118.708 127.013 118.51 127.4 118.387C127.787 118.264 128.194 118.218 128.599 118.252C129.003 118.286 129.397 118.4 129.757 118.586L131.061 119.249C131.77 119.62 132.305 120.252 132.554 121.009C132.802 121.767 132.744 122.592 132.392 123.308C131.976 124.191 131.533 125.047 131.116 125.931C130.773 126.658 130.155 127.221 129.395 127.495C128.636 127.77 127.799 127.733 127.067 127.394L125.735 126.787C125.363 126.617 125.028 126.376 124.751 126.077C124.473 125.777 124.258 125.426 124.119 125.043C123.979 124.66 123.918 124.253 123.938 123.846C123.959 123.439 124.06 123.04 124.238 122.673V122.673Z" fill="#0E86F4"/>
<path d="M118.274 136.119C118.662 135.152 119.078 134.186 119.494 133.358C119.635 132.967 119.854 132.609 120.138 132.306C120.423 132.004 120.767 131.762 121.149 131.596C121.531 131.431 121.943 131.345 122.36 131.344C122.776 131.343 123.189 131.427 123.572 131.591L124.931 132.17C125.668 132.492 126.249 133.089 126.55 133.832C126.85 134.575 126.847 135.406 126.54 136.146L125.375 138.907C125.072 139.647 124.49 140.239 123.752 140.554C123.015 140.869 122.183 140.883 121.436 140.592L120.049 140.067C119.67 139.926 119.323 139.712 119.029 139.437C118.734 139.161 118.497 138.83 118.332 138.463C118.166 138.095 118.076 137.699 118.066 137.296C118.056 136.894 118.127 136.494 118.274 136.119Z" fill="#0E86F4"/>
<path d="M113.281 149.842L114.225 147.08C114.355 146.693 114.562 146.336 114.834 146.03C115.105 145.723 115.435 145.474 115.805 145.297C116.174 145.119 116.576 145.017 116.986 144.996C117.395 144.975 117.805 145.036 118.191 145.175L119.578 145.672C120.339 145.942 120.963 146.498 121.316 147.221C121.668 147.944 121.722 148.776 121.464 149.538L120.493 152.299C120.239 153.058 119.695 153.687 118.978 154.049C118.262 154.41 117.431 154.476 116.665 154.232L115.251 153.679C114.868 153.557 114.512 153.361 114.206 153.102C113.899 152.842 113.647 152.525 113.464 152.168C113.281 151.812 113.17 151.422 113.139 151.023C113.108 150.624 113.156 150.222 113.281 149.842V149.842Z" fill="#0E86F4"/>
<path d="M109.092 163.951C109.342 162.957 109.619 161.936 109.897 160.914C110.005 160.527 110.19 160.164 110.441 159.848C110.691 159.532 111.002 159.269 111.356 159.074C111.709 158.878 112.098 158.755 112.5 158.711C112.902 158.667 113.309 158.702 113.697 158.816L115.25 159.202C116.021 159.428 116.675 159.942 117.073 160.637C117.472 161.332 117.584 162.154 117.386 162.93C117.109 163.869 116.859 164.835 116.637 165.691C116.54 166.08 116.366 166.445 116.127 166.767C115.887 167.089 115.586 167.36 115.24 167.565C114.895 167.771 114.512 167.906 114.114 167.963C113.716 168.021 113.31 167.999 112.92 167.9L111.478 167.569C110.684 167.396 109.99 166.921 109.544 166.244C109.098 165.568 108.936 164.745 109.092 163.951V163.951Z" fill="#0E86F4"/>
<path d="M105.876 178.282C106.07 177.26 106.292 176.239 106.514 175.245C106.704 174.467 107.196 173.795 107.882 173.376C108.568 172.957 109.392 172.825 110.175 173.008L111.617 173.312C112.404 173.484 113.091 173.957 113.532 174.628C113.973 175.299 114.132 176.115 113.975 176.901C113.753 177.868 113.559 178.834 113.365 179.662C113.21 180.449 112.751 181.144 112.088 181.599C111.424 182.053 110.608 182.23 109.814 182.092L108.372 181.844C107.971 181.777 107.588 181.632 107.244 181.416C106.9 181.2 106.604 180.917 106.371 180.586C106.139 180.254 105.975 179.879 105.89 179.483C105.805 179.088 105.8 178.679 105.876 178.282V178.282Z" fill="#0E86F4"/>
<path d="M103.628 192.778C103.628 191.728 103.878 190.679 104.017 189.658C104.074 189.259 104.211 188.877 104.418 188.531C104.626 188.186 104.9 187.885 105.225 187.646C105.55 187.407 105.92 187.235 106.312 187.14C106.705 187.044 107.112 187.027 107.512 187.09L108.954 187.311C109.747 187.427 110.464 187.847 110.951 188.482C111.438 189.116 111.657 189.914 111.561 190.707C111.423 191.701 111.312 192.667 111.201 193.634C111.17 194.04 111.057 194.435 110.868 194.797C110.679 195.158 110.419 195.477 110.103 195.735C109.786 195.993 109.42 196.185 109.028 196.298C108.635 196.412 108.223 196.444 107.817 196.395H106.347C105.922 196.352 105.511 196.223 105.14 196.014C104.768 195.805 104.444 195.521 104.189 195.181C103.933 194.841 103.751 194.452 103.655 194.038C103.558 193.624 103.549 193.195 103.628 192.778V192.778Z" fill="#0E86F4"/>
<path d="M102.352 207.329L102.547 204.319C102.617 203.518 103.004 202.777 103.623 202.259C104.242 201.741 105.042 201.489 105.847 201.558H107.345C108.142 201.635 108.878 202.019 109.396 202.627C109.914 203.235 110.173 204.021 110.119 204.816L109.925 207.771C109.854 208.552 109.483 209.275 108.888 209.79C108.293 210.305 107.522 210.57 106.735 210.532H105.237C104.836 210.51 104.444 210.411 104.081 210.238C103.719 210.066 103.395 209.824 103.127 209.526C102.859 209.229 102.653 208.881 102.52 208.504C102.387 208.127 102.33 207.728 102.352 207.329Z" fill="#0E86F4"/>
<path d="M101.937 222.072C101.937 221.023 101.937 219.974 101.937 218.897C101.958 218.089 102.3 217.322 102.887 216.764C103.474 216.205 104.259 215.9 105.071 215.915H106.541C106.956 215.9 107.369 215.969 107.756 216.119C108.143 216.268 108.495 216.494 108.791 216.784C109.087 217.073 109.32 217.42 109.477 217.802C109.634 218.184 109.711 218.595 109.703 219.008C109.703 220.002 109.703 220.996 109.703 221.99C109.703 222.79 109.385 223.559 108.819 224.128C108.253 224.696 107.484 225.02 106.68 225.027H105.21C104.798 225.053 104.386 224.997 103.997 224.861C103.608 224.726 103.251 224.514 102.945 224.239C102.64 223.963 102.394 223.629 102.22 223.257C102.047 222.885 101.951 222.482 101.937 222.072V222.072Z" fill="#0E86F4"/>
<path d="M178.354 64.7444H176.024C175.342 64.7493 174.683 64.5043 174.171 64.0562C173.66 63.608 173.332 62.9881 173.25 62.3147L173.056 60.0782C173.033 59.7019 173.088 59.3249 173.217 58.9706C173.346 58.6162 173.547 58.292 173.807 58.0177C174.067 57.7435 174.38 57.5252 174.728 57.3762C175.076 57.2272 175.451 57.1507 175.83 57.1514C176.717 57.1514 177.605 57.1514 178.603 57.1514C179.339 57.1514 180.044 57.4423 180.565 57.9601C181.085 58.4779 181.377 59.1802 181.377 59.9125V62.149C181.356 62.5193 181.261 62.8817 181.096 63.2145C180.932 63.5473 180.701 63.8436 180.419 64.0859C180.137 64.3281 179.809 64.5113 179.454 64.6244C179.099 64.7376 178.725 64.7784 178.354 64.7444V64.7444Z" fill="#0E86F4"/>
<path d="M190.419 65.3239L188.005 65.103C187.329 65.0216 186.706 64.6952 186.256 64.1859C185.806 63.6767 185.56 63.0203 185.565 62.3419L185.703 60.1054C185.766 59.417 186.085 58.777 186.599 58.3118C187.112 57.8465 187.783 57.59 188.477 57.5928L191.001 57.8137C191.712 57.8971 192.364 58.2513 192.819 58.802C193.274 59.3526 193.497 60.0572 193.442 60.7681L193.192 63.0046C193.086 63.6579 192.747 64.2515 192.238 64.6772C191.729 65.1029 191.083 65.3324 190.419 65.3239V65.3239Z" fill="#0E86F4"/>
<path d="M202.513 66.8703L200.1 66.5114C199.419 66.3836 198.81 66.0066 198.395 65.4547C197.979 64.9028 197.786 64.216 197.853 63.5294L198.13 61.2929C198.247 60.5835 198.636 59.9473 199.216 59.5193C199.797 59.0914 200.521 58.9055 201.237 59.0011L203.733 59.3877C204.447 59.5221 205.08 59.9301 205.495 60.5239C205.91 61.1177 206.074 61.8499 205.952 62.563L205.564 64.7719C205.405 65.4348 205.006 66.0159 204.443 66.4033C203.879 66.7907 203.192 66.957 202.513 66.8703Z" fill="#0E86F4"/>
<path d="M214.495 69.1624L212.165 68.693C211.472 68.5401 210.865 68.1284 210.467 67.5429C210.07 66.9573 209.913 66.2424 210.03 65.5454L210.473 63.3365C210.633 62.6573 211.045 62.0634 211.626 61.6741C212.208 61.2848 212.916 61.129 213.608 61.238L216.132 61.735C216.832 61.9059 217.438 62.3416 217.822 62.9499C218.205 63.5581 218.335 64.291 218.184 64.9932L217.657 67.1744C217.474 67.8387 217.049 68.4109 216.464 68.7787C215.879 69.1465 215.177 69.2834 214.495 69.1624Z" fill="#0E86F4"/>
<path d="M226.2 72.1993L223.871 71.5919C223.196 71.392 222.622 70.9442 222.267 70.3392C221.912 69.7341 221.801 69.0172 221.957 68.3338L222.539 66.1525C222.74 65.4807 223.19 64.9101 223.798 64.5563C224.405 64.2025 225.126 64.0921 225.812 64.2473L228.308 64.91C228.992 65.1268 229.565 65.5988 229.906 66.2269C230.247 66.8551 230.331 67.5904 230.139 68.2785L229.473 70.4322C229.245 71.0784 228.784 71.6171 228.179 71.9437C227.574 72.2703 226.869 72.3614 226.2 72.1993Z" fill="#0E86F4"/>
<path d="M178.881 59.0563L178.021 60.4368C177.617 61.0878 176.982 61.5632 176.241 61.768C175.501 61.9727 174.71 61.8918 174.027 61.5413L172.64 60.7958C172.272 60.6037 171.948 60.3382 171.687 60.0159C171.427 59.6936 171.236 59.3213 171.127 58.9223C171.018 58.5233 170.992 58.1062 171.052 57.6969C171.112 57.2877 171.256 56.8951 171.475 56.5437L172.501 54.9146C172.722 54.5799 173.008 54.2921 173.341 54.0677C173.675 53.8434 174.05 53.6869 174.444 53.6074C174.839 53.5278 175.245 53.5267 175.64 53.6042C176.035 53.6816 176.41 53.8361 176.745 54.0587L178.049 54.9146C178.7 55.3626 179.151 56.0451 179.306 56.8179C179.462 57.5907 179.309 58.3934 178.881 59.0563V59.0563Z" fill="#0E86F4"/>
<path d="M185.87 49.2267L184.816 50.6072C184.333 51.228 183.626 51.6381 182.845 51.7514C182.064 51.8647 181.269 51.6723 180.628 51.2147L179.38 50.3035C179.052 50.0635 178.776 49.7614 178.566 49.4144C178.357 49.0675 178.218 48.6827 178.159 48.2822C178.1 47.8817 178.121 47.4735 178.221 47.0811C178.321 46.6887 178.498 46.32 178.742 45.9961L179.879 44.5604C180.128 44.2457 180.437 43.9831 180.788 43.7876C181.139 43.5922 181.525 43.4678 181.925 43.4216C182.324 43.3755 182.729 43.4084 183.116 43.5185C183.503 43.6286 183.864 43.8138 184.178 44.0634L185.399 45.0298C186.015 45.5277 186.41 46.2468 186.498 47.0321C186.586 47.8173 186.361 48.6055 185.87 49.2267V49.2267Z" fill="#0E86F4"/>
<path d="M193.692 39.9225L192.527 41.2202C192.007 41.8131 191.275 42.1799 190.487 42.2418C189.699 42.3037 188.917 42.0559 188.311 41.5515L187.118 40.4747C186.81 40.215 186.557 39.897 186.373 39.5392C186.19 39.1814 186.079 38.7908 186.048 38.3902C186.017 37.9896 186.066 37.5868 186.193 37.2052C186.319 36.8237 186.521 36.4709 186.785 36.1673L187.978 34.8144C188.245 34.5096 188.57 34.2609 188.935 34.083C189.3 33.9051 189.697 33.8016 190.103 33.7784C190.508 33.7553 190.915 33.813 191.297 33.9482C191.68 34.0835 192.032 34.2935 192.333 34.5659L193.47 35.6151C193.77 35.8825 194.014 36.2064 194.188 36.5682C194.362 36.9299 194.462 37.3223 194.482 37.7228C194.503 38.1232 194.444 38.5238 194.308 38.9013C194.172 39.2788 193.963 39.6259 193.692 39.9225V39.9225Z" fill="#0E86F4"/>
<path d="M202.068 31.0863L200.876 32.3288C200.304 32.8937 199.531 33.2106 198.726 33.2106C197.921 33.2106 197.148 32.8937 196.576 32.3288L195.467 31.252C194.899 30.683 194.581 29.9138 194.581 29.1121C194.581 28.3104 194.899 27.5412 195.467 26.9722L196.771 25.6469C197.055 25.3589 197.393 25.1301 197.767 24.9739C198.141 24.8177 198.543 24.7373 198.948 24.7373C199.353 24.7373 199.755 24.8177 200.129 24.9739C200.503 25.1301 200.841 25.3589 201.125 25.6469L202.207 26.779C202.487 27.0684 202.705 27.4107 202.85 27.7855C202.995 28.1604 203.063 28.5603 203.05 28.9617C203.037 29.3631 202.944 29.7579 202.775 30.1228C202.606 30.4877 202.366 30.8153 202.068 31.0863V31.0863Z" fill="#0E86F4"/>
<path d="M173.499 68.7203C172.944 67.7263 172.362 66.7599 171.779 65.7935C171.347 65.098 171.204 64.2623 171.38 63.4635C171.556 62.6647 172.038 61.9655 172.722 61.5138L173.832 60.7959C174.183 60.5632 174.577 60.4034 174.992 60.326C175.406 60.2486 175.832 60.2552 176.244 60.3454C176.655 60.4356 177.045 60.6076 177.388 60.8511C177.731 61.0945 178.022 61.4045 178.242 61.7623L180.156 64.9928C180.362 65.3528 180.493 65.7499 180.543 66.1609C180.593 66.572 180.56 66.9889 180.447 67.3872C180.333 67.7856 180.141 68.1574 179.882 68.4811C179.622 68.8048 179.301 69.0738 178.936 69.2725L177.771 69.9352C177.04 70.3252 176.185 70.4165 175.388 70.1897C174.59 69.9629 173.913 69.4358 173.499 68.7203V68.7203Z" fill="#0E86F4"/>
<path d="M180.656 82.2777L179.047 79.13C178.853 78.7675 178.733 78.3706 178.694 77.9619C178.655 77.5532 178.697 77.1408 178.818 76.7484C178.939 76.3559 179.137 75.9911 179.4 75.6749C179.663 75.3586 179.986 75.0972 180.351 74.9055L181.516 74.2704C181.883 74.078 182.286 73.9597 182.7 73.9222C183.113 73.8846 183.531 73.9287 183.927 74.0518C184.324 74.1749 184.692 74.3746 185.012 74.6395C185.331 74.9044 185.594 75.2294 185.787 75.5958C186.37 76.6726 186.924 77.777 187.479 78.8815C187.835 79.6334 187.88 80.494 187.605 81.2787C187.33 82.0633 186.757 82.7094 186.009 83.0784L184.816 83.6582C184.079 84.0155 183.231 84.071 182.453 83.813C181.675 83.5549 181.03 83.0037 180.656 82.2777Z" fill="#0E86F4"/>
<path d="M187.368 96.2762L185.759 92.9353C185.457 92.1861 185.455 91.35 185.755 90.5998C186.054 89.8495 186.632 89.2424 187.368 88.904L188.561 88.3242C189.33 87.978 190.205 87.9492 190.995 88.2442C191.786 88.5391 192.426 89.1339 192.777 89.898L194.247 93.1838C194.417 93.5641 194.509 93.9743 194.519 94.3905C194.529 94.8067 194.455 95.2207 194.303 95.6084C194.151 95.9962 193.923 96.3501 193.632 96.6495C193.342 96.949 192.994 97.1881 192.61 97.353L191.418 97.8776C190.665 98.1717 189.827 98.1699 189.075 97.8726C188.324 97.5752 187.713 97.0046 187.368 96.2762V96.2762Z" fill="#0E86F4"/>
<path d="M193.193 110.524L191.862 107.211C191.551 106.445 191.557 105.588 191.879 104.828C192.202 104.067 192.814 103.464 193.581 103.152L194.802 102.655C195.186 102.497 195.598 102.416 196.014 102.416C196.43 102.416 196.841 102.499 197.225 102.658C197.609 102.817 197.958 103.049 198.251 103.343C198.544 103.636 198.777 103.984 198.935 104.367L200.266 107.708C200.423 108.095 200.5 108.51 200.494 108.928C200.488 109.346 200.399 109.758 200.231 110.141C200.063 110.524 199.82 110.87 199.517 111.158C199.213 111.447 198.855 111.672 198.463 111.822L197.215 112.291C196.445 112.573 195.596 112.547 194.845 112.217C194.095 111.888 193.502 111.28 193.193 110.524V110.524Z" fill="#0E86F4"/>
<path d="M198.463 125.019L197.353 121.651C197.117 120.888 197.181 120.065 197.531 119.348C197.881 118.63 198.492 118.072 199.24 117.785L200.46 117.343C200.851 117.199 201.267 117.134 201.684 117.152C202.101 117.17 202.51 117.271 202.887 117.449C203.264 117.626 203.602 117.877 203.881 118.186C204.159 118.495 204.373 118.856 204.51 119.249L205.73 122.645C205.866 123.036 205.922 123.451 205.896 123.864C205.871 124.277 205.763 124.681 205.58 125.053C205.397 125.425 205.142 125.758 204.83 126.031C204.518 126.305 204.155 126.515 203.761 126.648L202.513 127.062C202.112 127.204 201.688 127.263 201.264 127.236C200.84 127.208 200.426 127.096 200.048 126.905C199.669 126.714 199.333 126.448 199.061 126.124C198.788 125.8 198.585 125.424 198.463 125.019V125.019Z" fill="#0E86F4"/>
<path d="M203.261 139.708L202.207 136.285C201.971 135.497 202.054 134.65 202.437 133.922C202.821 133.195 203.475 132.645 204.26 132.391L205.536 131.977C205.933 131.853 206.35 131.809 206.765 131.846C207.179 131.883 207.582 132.001 207.951 132.193C208.319 132.386 208.646 132.648 208.912 132.967C209.178 133.285 209.379 133.653 209.502 134.048L210.556 137.5C210.679 137.896 210.721 138.314 210.68 138.727C210.639 139.141 210.515 139.542 210.317 139.907C210.118 140.272 209.847 140.594 209.522 140.854C209.196 141.114 208.822 141.306 208.42 141.42L207.144 141.807C206.35 142.031 205.499 141.937 204.773 141.545C204.048 141.153 203.505 140.494 203.261 139.708V139.708Z" fill="#0E86F4"/>
<path d="M169.033 66.0694V64.468C169.068 63.9863 169.199 63.5164 169.418 63.0855C169.637 62.6546 169.939 62.2713 170.308 61.9579C170.677 61.6445 171.105 61.4072 171.567 61.2598C172.029 61.1124 172.516 61.0579 172.999 61.0994H173.499C174.461 61.177 175.353 61.6296 175.981 62.3587C176.61 63.0877 176.924 64.0343 176.855 64.9926V66.594C176.777 67.5538 176.323 68.4447 175.592 69.0748C174.86 69.7048 173.909 70.0237 172.944 69.9626H172.639C172.141 69.9563 171.65 69.8489 171.195 69.647C170.74 69.4452 170.331 69.1532 169.994 68.7888C169.656 68.4244 169.397 67.9953 169.232 67.5277C169.067 67.0601 168.999 66.5639 169.033 66.0694V66.0694Z" fill="#0E86F4"/>
<path d="M168.091 80.1786V78.5772C168.116 78.097 168.237 77.6265 168.446 77.1933C168.655 76.76 168.95 76.3727 169.311 76.0539C169.673 75.7351 170.094 75.4913 170.552 75.3367C171.009 75.1821 171.493 75.1197 171.975 75.1534H172.28C172.778 75.1701 173.268 75.288 173.719 75.4998C174.17 75.7117 174.573 76.013 174.902 76.3852C175.232 76.7575 175.482 77.193 175.637 77.6648C175.792 78.1367 175.848 78.6351 175.802 79.1294V80.7585C175.738 81.7231 175.294 82.6236 174.567 83.2645C173.84 83.9055 172.889 84.2353 171.919 84.1823H171.642C171.14 84.1655 170.647 84.0469 170.192 83.8337C169.738 83.6205 169.332 83.3172 169 82.9423C168.667 82.5675 168.415 82.129 168.259 81.6538C168.103 81.1785 168.046 80.6766 168.091 80.1786Z" fill="#0E86F4"/>
<path d="M167.314 94.3163V92.6872C167.338 92.2084 167.458 91.7391 167.665 91.3063C167.873 90.8735 168.164 90.4857 168.522 90.1651C168.88 89.8445 169.298 89.5974 169.752 89.4379C170.207 89.2785 170.688 89.2098 171.169 89.2359H171.474C172.443 89.2929 173.35 89.7278 173.999 90.4462C174.648 91.1646 174.987 92.1087 174.941 93.0738V94.6753C174.92 95.1529 174.804 95.6215 174.6 96.0542C174.395 96.4868 174.107 96.8748 173.751 97.1957C173.395 97.5167 172.978 97.7642 172.526 97.924C172.073 98.0838 171.593 98.1527 171.114 98.1266H170.725C169.771 98.0558 168.882 97.6189 168.246 96.908C167.609 96.1971 167.275 95.2678 167.314 94.3163Z" fill="#0E86F4"/>
<path d="M166.704 108.426V106.797C166.72 106.299 166.839 105.81 167.054 105.361C167.269 104.911 167.574 104.51 167.952 104.184C168.329 103.857 168.771 103.612 169.248 103.463C169.725 103.314 170.228 103.264 170.725 103.318H171.003C171.972 103.361 172.884 103.782 173.544 104.49C174.203 105.198 174.556 106.136 174.525 107.101V108.73C174.517 109.232 174.403 109.727 174.192 110.183C173.98 110.639 173.675 111.047 173.297 111.379C172.919 111.712 172.475 111.962 171.994 112.114C171.513 112.267 171.005 112.318 170.504 112.264H170.226C169.74 112.246 169.263 112.132 168.822 111.929C168.381 111.726 167.984 111.437 167.657 111.08C167.329 110.723 167.075 110.304 166.912 109.848C166.748 109.393 166.677 108.909 166.704 108.426V108.426Z" fill="#0E86F4"/>
<path d="M166.177 122.534V120.905C166.191 120.425 166.301 119.953 166.5 119.516C166.7 119.079 166.985 118.685 167.338 118.359C167.692 118.033 168.107 117.78 168.56 117.615C169.013 117.45 169.495 117.376 169.977 117.398H170.254C171.223 117.434 172.138 117.849 172.803 118.551C173.467 119.254 173.827 120.189 173.804 121.154V122.783C173.79 123.26 173.681 123.73 173.483 124.165C173.285 124.6 173.003 124.992 172.652 125.318C172.302 125.644 171.89 125.898 171.44 126.065C170.99 126.231 170.512 126.308 170.032 126.289H169.727C169.246 126.275 168.773 126.166 168.334 125.97C167.895 125.773 167.5 125.493 167.17 125.144C166.84 124.795 166.583 124.385 166.412 123.937C166.242 123.49 166.162 123.013 166.177 122.534V122.534Z" fill="#0E86F4"/>
<path d="M165.788 136.644V135.042C165.845 134.088 166.274 133.193 166.984 132.548C167.693 131.904 168.628 131.56 169.588 131.591H169.893C170.85 131.605 171.763 131.992 172.436 132.668C173.11 133.344 173.492 134.255 173.499 135.208V136.837C173.47 137.801 173.061 138.715 172.36 139.382C171.659 140.048 170.723 140.414 169.754 140.399H169.449C168.958 140.403 168.471 140.308 168.017 140.119C167.564 139.93 167.154 139.652 166.811 139.301C166.469 138.95 166.202 138.533 166.026 138.077C165.85 137.62 165.769 137.132 165.788 136.644V136.644Z" fill="#0E86F4"/>
<path d="M165.511 150.919V149.317C165.514 148.834 165.615 148.356 165.805 147.912C165.996 147.467 166.274 147.065 166.622 146.728C166.971 146.392 167.383 146.127 167.835 145.951C168.287 145.774 168.77 145.689 169.255 145.7H169.533C170.502 145.722 171.423 146.122 172.097 146.814C172.772 147.507 173.146 148.436 173.139 149.4V150.919C173.131 151.397 173.03 151.87 172.839 152.309C172.648 152.749 172.372 153.146 172.027 153.48C171.682 153.813 171.274 154.075 170.827 154.252C170.38 154.428 169.903 154.515 169.422 154.508H169.144C168.19 154.494 167.278 154.112 166.6 153.443C165.923 152.773 165.532 151.869 165.511 150.919V150.919Z" fill="#0E86F4"/>
<path d="M165.372 164.891V163.289C165.387 162.32 165.786 161.396 166.482 160.718C167.178 160.041 168.115 159.665 169.089 159.672H169.366C169.848 159.672 170.325 159.767 170.77 159.953C171.214 160.138 171.617 160.409 171.956 160.751C172.294 161.093 172.56 161.498 172.739 161.943C172.919 162.388 173.007 162.865 173 163.344V164.946C173 165.425 172.904 165.9 172.718 166.343C172.532 166.785 172.259 167.186 171.916 167.523C171.573 167.86 171.166 168.125 170.718 168.303C170.271 168.482 169.793 168.57 169.311 168.563H169.034C168.55 168.563 168.072 168.468 167.626 168.283C167.18 168.098 166.775 167.827 166.435 167.486C166.094 167.144 165.825 166.739 165.643 166.294C165.461 165.848 165.369 165.371 165.372 164.891V164.891Z" fill="#0E86F4"/>
<path d="M165.344 179.027V177.398C165.344 176.431 165.729 175.504 166.416 174.82C167.103 174.137 168.034 173.753 169.005 173.753H169.31C170.281 173.753 171.213 174.137 171.899 174.82C172.586 175.504 172.972 176.431 172.972 177.398V179.027C172.964 179.991 172.576 180.914 171.891 181.596C171.206 182.278 170.279 182.664 169.31 182.671H169.033C168.059 182.671 167.125 182.288 166.434 181.606C165.743 180.923 165.351 179.996 165.344 179.027V179.027Z" fill="#0E86F4"/>
<path d="M165.455 193.164V191.535C165.452 191.056 165.543 190.582 165.723 190.138C165.904 189.695 166.171 189.291 166.508 188.95C166.845 188.609 167.247 188.337 167.69 188.151C168.133 187.964 168.608 187.866 169.089 187.863H169.394C169.873 187.855 170.35 187.943 170.795 188.119C171.241 188.296 171.646 188.559 171.989 188.893C172.332 189.226 172.605 189.624 172.793 190.064C172.981 190.503 173.079 190.975 173.083 191.452V193.081C173.09 194.043 172.716 194.969 172.04 195.657C171.365 196.345 170.443 196.739 169.477 196.753H169.172C168.691 196.761 168.214 196.674 167.767 196.497C167.32 196.321 166.912 196.059 166.567 195.725C166.222 195.392 165.946 194.994 165.755 194.555C165.564 194.115 165.462 193.643 165.455 193.164V193.164Z" fill="#0E86F4"/>
<path d="M165.705 207.3V205.671C165.694 205.19 165.779 204.712 165.954 204.264C166.13 203.816 166.393 203.406 166.728 203.06C167.063 202.713 167.464 202.436 167.907 202.245C168.351 202.053 168.828 201.951 169.311 201.944H169.616C170.582 201.929 171.515 202.295 172.212 202.962C172.908 203.63 173.311 204.544 173.333 205.506V207.107C173.348 207.587 173.266 208.064 173.094 208.512C172.921 208.96 172.661 209.37 172.328 209.717C171.995 210.064 171.596 210.341 171.154 210.533C170.712 210.725 170.237 210.827 169.755 210.835H169.477C168.996 210.849 168.517 210.77 168.068 210.6C167.618 210.43 167.206 210.174 166.855 209.846C166.505 209.517 166.223 209.124 166.026 208.687C165.828 208.25 165.719 207.779 165.705 207.3V207.3Z" fill="#0E86F4"/>
<path d="M166.038 221.437C166.038 220.885 166.038 220.333 166.038 219.781C166.016 218.811 166.379 217.872 167.05 217.169C167.72 216.465 168.643 216.054 169.616 216.025H169.921C170.864 216.046 171.761 216.429 172.428 217.092C173.094 217.755 173.478 218.649 173.499 219.587C173.499 220.112 173.499 220.636 173.499 221.161C173.518 221.64 173.442 222.117 173.275 222.567C173.107 223.016 172.853 223.428 172.526 223.779C172.199 224.131 171.805 224.414 171.368 224.614C170.93 224.814 170.458 224.926 169.977 224.944H169.672C168.731 224.931 167.831 224.56 167.156 223.909C166.48 223.257 166.08 222.373 166.038 221.437V221.437Z" fill="#0E86F4"/>
<path d="M21.1917 86.1986L20.0267 87.6896C19.5997 88.2232 18.9892 88.5806 18.3132 88.6928C17.6371 88.8049 16.9432 88.664 16.3654 88.297L14.5347 87.0545C14.2369 86.8431 13.984 86.5752 13.7906 86.2662C13.5972 85.9572 13.4671 85.6131 13.4078 85.2539C13.3485 84.8946 13.3612 84.5272 13.4451 84.1728C13.529 83.8184 13.6825 83.484 13.8967 83.1889L15.2559 81.4494C15.7207 80.8968 16.3842 80.5471 17.1046 80.4748C17.825 80.4026 18.5452 80.6137 19.1114 81.0629L20.8034 82.4434C21.3349 82.9033 21.6708 83.5473 21.7429 84.2446C21.815 84.942 21.6179 85.6405 21.1917 86.1986V86.1986Z" fill="#0E86F4"/>
<path d="M28.7363 77.5838L27.4327 78.992C26.9404 79.4692 26.2876 79.7475 25.6009 79.773C24.9142 79.7985 24.2425 79.5694 23.7158 79.13L22.1348 77.7218C21.5959 77.2352 21.2706 76.5574 21.2291 75.8343C21.1876 75.1112 21.4332 74.4008 21.9129 73.8563L23.4107 72.2825C23.9292 71.7765 24.6263 71.4932 25.3523 71.4932C26.0784 71.4932 26.7755 71.7765 27.294 72.2825L28.8195 73.8011C29.2921 74.3236 29.5466 75.0059 29.5311 75.7088C29.5157 76.4118 29.2314 77.0823 28.7363 77.5838Z" fill="#0E86F4"/>
<path d="M37.0298 69.6043L35.5874 70.8744C35.068 71.3603 34.3807 71.6284 33.668 71.6233C32.9553 71.6181 32.2719 71.3401 31.7596 70.8468L30.2618 69.3006C29.7619 68.7858 29.4824 68.0977 29.4824 67.3816C29.4824 66.6656 29.7619 65.9775 30.2618 65.4627L31.8983 63.9993C32.4508 63.5369 33.1625 63.3071 33.8824 63.3587C34.6022 63.4102 35.2736 63.7391 35.7538 64.2754L37.1407 65.9044C37.5858 66.4253 37.8208 67.0921 37.8003 67.7756C37.7798 68.4591 37.5052 69.1108 37.0298 69.6043V69.6043Z" fill="#0E86F4"/>
<path d="M45.9059 62.3423L44.3248 63.5295C43.7563 63.9361 43.0545 64.1136 42.36 64.0265C41.6655 63.9395 41.0297 63.5943 40.5802 63.0602L39.1934 61.3483C38.7516 60.7744 38.5534 60.051 38.6416 59.3334C38.7298 58.6158 39.0972 57.9612 39.6649 57.5103L41.3569 56.2402C41.9469 55.8124 42.6825 55.6334 43.4043 55.7419C44.126 55.8505 44.7757 56.2378 45.2124 56.82L46.4883 58.6148C46.8843 59.1937 47.0444 59.9009 46.9363 60.593C46.8281 61.2851 46.4598 61.9104 45.9059 62.3423V62.3423Z" fill="#0E86F4"/>
<path d="M55.3928 55.9083L53.7841 56.9299C53.1762 57.3013 52.448 57.4253 51.7507 57.2762C51.0533 57.1271 50.4405 56.7163 50.0395 56.1292L48.8468 54.2793C48.454 53.6728 48.3153 52.9373 48.4605 52.2303C48.6056 51.5233 49.0231 50.901 49.6234 50.4965L51.4818 49.3369C52.112 48.9722 52.8611 48.8692 53.5671 49.05C54.273 49.2309 54.8791 49.6811 55.2542 50.3033L56.3359 52.1532C56.7047 52.7772 56.8124 53.5205 56.6361 54.2228C56.4597 54.9252 56.0132 55.5305 55.3928 55.9083V55.9083Z" fill="#0E86F4"/>
<path d="M65.4617 50.4418L63.742 51.2977C63.0989 51.6018 62.3631 51.6481 61.6867 51.4271C61.0104 51.2061 60.4452 50.7347 60.1083 50.1104L59.082 48.2329C58.7489 47.5875 58.6843 46.8375 58.9024 46.1451C59.1204 45.4528 59.6034 44.8736 60.247 44.533L62.2164 43.5666C62.8826 43.266 63.6411 43.2395 64.3268 43.4929C65.0125 43.7463 65.57 44.259 65.8778 44.9195L66.7376 46.8523C67.0284 47.4993 67.0581 48.2328 66.8206 48.901C66.5831 49.5692 66.0965 50.1208 65.4617 50.4418V50.4418Z" fill="#0E86F4"/>
<path d="M76.002 45.9958L74.1435 46.6585C73.5155 46.8421 72.8425 46.7987 72.2435 46.5359C71.6445 46.2732 71.1582 45.808 70.8705 45.2227L70.0384 43.1795C69.7872 42.4947 69.8182 41.7387 70.1248 41.0766C70.4314 40.4145 70.9886 39.9 71.6749 39.6453L73.672 38.9274C74.3673 38.6997 75.1248 38.7547 75.7794 39.0806C76.4341 39.4064 76.9328 39.9766 77.1669 40.6669L77.8326 42.7653C77.9848 43.434 77.8817 44.135 77.5434 44.7321C77.205 45.3292 76.6555 45.7797 76.002 45.9958Z" fill="#0E86F4"/>
<path d="M86.9032 43.0702L85.0448 43.4567C84.3627 43.5953 83.6532 43.4734 83.0571 43.1154C82.461 42.7573 82.022 42.1893 81.8273 41.5239L81.2448 39.3979C81.0688 38.6876 81.1832 37.9368 81.5628 37.3104C81.9425 36.684 82.5563 36.2332 83.2696 36.0569L85.4331 35.6151C86.1337 35.4908 86.8556 35.6393 87.4493 36.0299C88.043 36.4204 88.4632 37.0233 88.623 37.7136L89.039 39.8673C89.1709 40.5727 89.0217 41.3016 88.6231 41.8995C88.2244 42.4974 87.6075 42.9172 86.9032 43.0702V43.0702Z" fill="#0E86F4"/>
<path d="M100.771 41.192L97.332 41.3852H97.0824C96.6243 41.4637 96.1551 41.4496 95.7026 41.3439C95.2502 41.2383 94.8237 41.0431 94.4485 40.7701C94.0733 40.497 93.757 40.1517 93.5186 39.7546C93.2801 39.3575 93.1243 38.9167 93.0604 38.4585V37.0503C92.9804 36.3426 93.1781 35.6316 93.6122 35.0656C94.0464 34.4996 94.6835 34.1225 95.3904 34.0131L96.4166 33.875H96.6663H97.7203C98.4191 33.8728 99.0929 34.1332 99.6072 34.6041C100.121 35.0751 100.438 35.7219 100.494 36.4152L100.771 41.192Z" fill="#0E86F4"/>
<path d="M109.703 41.1088H107.734C106.998 41.1088 106.293 40.8179 105.772 40.3001C105.252 39.7823 104.96 39.08 104.96 38.3477V36.1664C104.96 35.4341 105.252 34.7318 105.772 34.214C106.293 33.6962 106.998 33.4053 107.734 33.4053H109.925C110.661 33.4053 111.366 33.6962 111.886 34.214C112.406 34.7318 112.699 35.4341 112.699 36.1664L112.532 38.3477C112.532 38.715 112.459 39.0786 112.316 39.4172C112.173 39.7559 111.964 40.0627 111.7 40.3199C111.437 40.577 111.125 40.7792 110.782 40.9147C110.439 41.0501 110.072 41.1161 109.703 41.1088Z" fill="#0E86F4"/>
<path d="M120.798 42.3238C120.188 42.3238 119.55 42.0753 118.912 41.9925C118.231 41.8647 117.623 41.4877 117.207 40.9358C116.791 40.3839 116.598 39.6971 116.666 39.0105L116.943 36.8292C117.046 36.1043 117.434 35.4498 118.022 35.0097C118.61 34.5695 119.349 34.3798 120.077 34.4822L122.241 34.8688C122.945 35.0157 123.563 35.4289 123.967 36.0213C124.371 36.6136 124.527 37.3389 124.404 38.0441L123.961 40.1977C123.807 40.8876 123.393 41.4925 122.805 41.888C122.217 42.2835 121.499 42.4395 120.798 42.3238Z" fill="#0E86F4"/>
<path d="M131.894 44.8642L130.035 44.3672C129.356 44.1788 128.774 43.74 128.408 43.1399C128.043 42.5398 127.92 41.8235 128.066 41.1367L128.593 39.0107C128.776 38.3177 129.223 37.7229 129.839 37.3519C130.455 36.9809 131.192 36.8629 131.894 37.0227L134.002 37.5749C134.703 37.7857 135.292 38.2641 135.64 38.9055C135.988 39.5469 136.067 40.2994 135.86 40.9987L135.222 43.2352C134.967 43.8678 134.486 44.3842 133.872 44.685C133.257 44.9857 132.553 45.0496 131.894 44.8642Z" fill="#0E86F4"/>
<path d="M142.683 48.7575L140.825 48.012C140.185 47.7367 139.672 47.2315 139.39 46.597C139.107 45.9625 139.075 45.2454 139.299 44.5883L140.048 42.545C140.177 42.206 140.372 41.8956 140.622 41.6316C140.872 41.3676 141.172 41.1552 141.504 41.0065C141.836 40.8578 142.195 40.7757 142.559 40.7649C142.923 40.7541 143.286 40.8148 143.626 40.9436L145.596 41.7719C146.258 42.0581 146.783 42.5905 147.057 43.2556C147.332 43.9208 147.335 44.6664 147.066 45.3338L146.178 47.3494C145.881 47.9793 145.356 48.4744 144.708 48.7355C144.06 48.9966 143.337 49.0044 142.683 48.7575V48.7575Z" fill="#0E86F4"/>
<path d="M153.057 53.4786L151.31 52.5674C150.696 52.2327 150.233 51.6798 150.011 51.0193C149.79 50.3589 149.828 49.6396 150.117 49.0056L151.088 47.0452C151.415 46.3972 151.986 45.9036 152.676 45.671C153.367 45.4385 154.121 45.4858 154.777 45.8027L156.663 46.7691C157.297 47.1191 157.768 47.7023 157.975 48.3938C158.183 49.0854 158.11 49.8302 157.772 50.469L156.718 52.4017C156.363 53.0138 155.785 53.4666 155.103 53.667C154.422 53.8673 153.69 53.7999 153.057 53.4786V53.4786Z" fill="#0E86F4"/>
<path d="M163.098 59.2218L161.378 58.1726C160.784 57.7915 160.359 57.1994 160.189 56.517C160.019 55.8346 160.117 55.1133 160.463 54.5003L161.572 52.6227C161.952 52.0052 162.56 51.5608 163.265 51.3852C163.971 51.2096 164.718 51.3169 165.344 51.684L167.12 52.7884C167.721 53.1838 168.145 53.7971 168.3 54.4981C168.456 55.1991 168.331 55.9327 167.952 56.5435L166.759 58.3935C166.364 58.9633 165.769 59.3646 165.091 59.5181C164.412 59.6715 163.701 59.5657 163.098 59.2218Z" fill="#0E86F4"/>
<path d="M172.667 65.6833L171.031 64.5236C170.463 64.1037 170.079 63.4841 169.955 62.7913C169.831 62.0986 169.978 61.3849 170.365 60.7961L171.613 59.0014C172.036 58.4216 172.669 58.0284 173.378 57.9047C174.088 57.781 174.817 57.9367 175.413 58.3387L177.133 59.526C177.718 59.9607 178.107 60.6074 178.216 61.3259C178.325 62.0443 178.145 62.7766 177.715 63.364L176.412 65.1035C175.978 65.6549 175.35 66.0215 174.654 66.1292C173.959 66.2368 173.249 66.0774 172.667 65.6833V65.6833Z" fill="#0E86F4"/>
<path d="M168.729 57.0414H169.727C170.23 57.0606 170.723 57.1835 171.176 57.4023C171.628 57.6211 172.03 57.9312 172.356 58.3127C172.682 58.6943 172.925 59.1391 173.069 59.6189C173.214 60.0988 173.256 60.6032 173.194 61.1003V61.404C173.09 62.3141 172.642 63.1509 171.942 63.7454C171.242 64.3399 170.341 64.6478 169.422 64.6069H168.645C167.696 64.5858 166.791 64.2009 166.119 63.5322C165.447 62.8636 165.061 61.9628 165.039 61.0174V60.7137C165.032 60.2294 165.122 59.7485 165.305 59.2996C165.488 58.8507 165.759 58.4429 166.103 58.1004C166.447 57.7579 166.857 57.4877 167.308 57.3058C167.759 57.1239 168.242 57.034 168.729 57.0414Z" fill="#0E86F4"/>
<path d="M155.275 57.6206H156.274C156.76 57.5792 157.249 57.6357 157.713 57.7868C158.177 57.9379 158.606 58.1805 158.973 58.5C159.341 58.8195 159.64 59.2095 159.853 59.6467C160.066 60.0838 160.188 60.5592 160.212 61.0444V61.3481C160.237 62.2785 159.903 63.183 159.279 63.8761C158.655 64.5692 157.788 64.9983 156.856 65.0756H156.079C155.129 65.1775 154.176 64.9052 153.425 64.317C152.673 63.7289 152.182 62.8714 152.057 61.9279V61.6242C152 61.1502 152.038 60.6695 152.169 60.2103C152.3 59.751 152.522 59.3224 152.821 58.9496C153.121 58.5767 153.492 58.2672 153.914 58.039C154.335 57.8108 154.798 57.6685 155.275 57.6206Z" fill="#0E86F4"/>
<path d="M142.1 59.8017L142.96 59.6084C143.441 59.5165 143.935 59.52 144.415 59.6189C144.894 59.7178 145.349 59.91 145.754 60.1845C146.159 60.4591 146.505 60.8105 146.773 61.2187C147.04 61.6268 147.225 62.0836 147.314 62.5628V62.8389C147.481 63.7591 147.286 64.7079 146.77 65.4891C146.254 66.2702 145.456 66.824 144.541 67.0358L143.709 67.2015C142.771 67.3986 141.793 67.219 140.988 66.7019C140.183 66.1847 139.615 65.3719 139.409 64.4404V64.1643C139.192 63.231 139.352 62.2501 139.856 61.4336C140.359 60.6172 141.165 60.0309 142.1 59.8017Z" fill="#0E86F4"/>
<path d="M129.119 63.1159L129.978 62.8398C130.45 62.6832 130.948 62.6238 131.443 62.6651C131.938 62.7064 132.42 62.8476 132.858 63.0801C133.297 63.3126 133.683 63.6315 133.994 64.0174C134.305 64.4033 134.534 64.8481 134.666 65.3248V65.6009C134.929 66.5015 134.83 67.4685 134.39 68.2979C133.95 69.1273 133.204 69.7541 132.308 70.0463L131.476 70.3224C130.571 70.6245 129.583 70.5627 128.723 70.1501C127.863 69.7374 127.198 69.0066 126.872 68.1135V67.8374C126.705 67.3807 126.631 66.8956 126.653 66.4102C126.676 65.9248 126.796 65.4487 127.005 65.0095C127.214 64.5703 127.508 64.1768 127.871 63.8517C128.234 63.5267 128.658 63.2766 129.119 63.1159V63.1159Z" fill="#0E86F4"/>
<path d="M116.665 68.085L117.498 67.726C117.946 67.5272 118.431 67.4203 118.922 67.4117C119.413 67.4031 119.901 67.4929 120.356 67.6758C120.812 67.8587 121.225 68.131 121.573 68.4764C121.921 68.8218 122.195 69.2333 122.379 69.6864V69.9625C122.741 70.8386 122.744 71.821 122.386 72.6987C122.028 73.5764 121.338 74.2793 120.465 74.6564L119.661 75.0154C118.798 75.3982 117.819 75.4338 116.93 75.1147C116.04 74.7957 115.31 74.1466 114.89 73.3035V73.0274C114.671 72.5884 114.544 72.1101 114.515 71.621C114.486 71.1318 114.557 70.6419 114.723 70.1806C114.888 69.7192 115.146 69.2958 115.48 68.9358C115.813 68.5757 116.217 68.2863 116.665 68.085V68.085Z" fill="#0E86F4"/>
<path d="M104.794 74.1598L105.57 73.6904C105.995 73.4461 106.465 73.2887 106.952 73.2273C107.438 73.166 107.933 73.2019 108.405 73.333C108.878 73.4642 109.32 73.6879 109.704 73.991C110.089 74.2942 110.409 74.6707 110.646 75.0985V75.3746C111.101 76.2055 111.214 77.18 110.96 78.0921C110.707 79.0042 110.107 79.7823 109.287 80.2618L108.51 80.7036C107.697 81.1783 106.73 81.3199 105.814 81.0984C104.898 80.8768 104.105 80.3095 103.601 79.5163L103.434 79.2678C103.174 78.847 103.002 78.3778 102.93 77.8888C102.857 77.3998 102.886 76.9012 103.013 76.4234C103.14 75.9456 103.363 75.4985 103.669 75.1094C103.976 74.7202 104.358 74.3971 104.794 74.1598V74.1598Z" fill="#0E86F4"/>
<path d="M93.6697 81.6698L94.4187 81.09C94.813 80.7998 95.2618 80.5914 95.7386 80.4772C96.2154 80.3629 96.7103 80.3452 97.1941 80.425C97.6779 80.5049 98.1406 80.6806 98.5549 80.9419C98.9691 81.2032 99.3264 81.5446 99.6056 81.9459L99.772 82.1944C100.321 82.9667 100.545 83.9224 100.394 84.8566C100.244 85.7909 99.7317 86.6293 98.9676 87.192L98.3296 87.689C97.572 88.2632 96.6206 88.5235 95.6745 88.4154C94.7284 88.3074 93.861 87.8393 93.2537 87.1092L93.0595 86.8607C92.7506 86.4827 92.521 86.047 92.3842 85.5791C92.2474 85.1113 92.2062 84.6209 92.2631 84.1369C92.32 83.653 92.4738 83.1853 92.7154 82.7616C92.957 82.3378 93.2815 81.9666 93.6697 81.6698Z" fill="#0E86F4"/>
<path d="M83.4355 90.395L84.1289 89.7047C84.4851 89.3662 84.9063 89.1027 85.3672 88.93C85.828 88.7573 86.3192 88.6789 86.8112 88.6995C87.3032 88.7201 87.786 88.8393 88.2307 89.05C88.6753 89.2607 89.0727 89.5585 89.3991 89.9256L89.5932 90.1741C90.2185 90.8767 90.5449 91.7937 90.5035 92.7314C90.4621 93.6691 90.0561 94.5541 89.3713 95.1993L88.8166 95.7792C88.1307 96.457 87.2035 96.8374 86.237 96.8374C85.2705 96.8374 84.3433 96.457 83.6574 95.7792L83.4355 95.6963C83.0728 95.3556 82.7839 94.9448 82.5864 94.489C82.389 94.0332 82.2871 93.542 82.2871 93.0457C82.2871 92.5493 82.389 92.0581 82.5864 91.6023C82.7839 91.1465 83.0728 90.7357 83.4355 90.395V90.395Z" fill="#0E86F4"/>
<path d="M74.3102 99.9761L74.9205 99.3134C75.2407 98.9448 75.632 98.6438 76.0711 98.4283C76.5103 98.2128 76.9884 98.0872 77.4772 98.0589C77.966 98.0306 78.4555 98.1001 78.9168 98.2634C79.3781 98.4268 79.8018 98.6805 80.1628 99.0097L80.3847 99.2306C81.0811 99.8779 81.4988 100.768 81.5505 101.715C81.6022 102.662 81.2839 103.592 80.6621 104.311L80.0796 104.946C79.4616 105.658 78.5912 106.104 77.6503 106.191C76.7095 106.279 75.7711 106.001 75.0314 105.415L74.8095 105.222C74.4212 104.917 74.099 104.537 73.8625 104.104C73.626 103.671 73.48 103.196 73.4333 102.705C73.3867 102.215 73.4403 101.72 73.591 101.251C73.7417 100.782 73.9864 100.348 74.3102 99.9761Z" fill="#0E86F4"/>
<path d="M66.1826 110.606C66.349 110.33 66.5431 110.082 66.7096 109.833C66.9909 109.434 67.3498 109.095 67.765 108.836C68.1803 108.578 68.6435 108.405 69.1271 108.327C69.6108 108.25 70.1051 108.27 70.5808 108.387C71.0565 108.503 71.5039 108.713 71.8965 109.005L72.1461 109.198C72.9043 109.765 73.4119 110.603 73.5619 111.535C73.7119 112.467 73.4928 113.421 72.9505 114.196L72.479 114.886C71.9334 115.674 71.1006 116.218 70.1577 116.404C69.2149 116.589 68.2365 116.401 67.4307 115.88L67.1811 115.714C66.7749 115.447 66.4262 115.102 66.1555 114.7C65.8848 114.297 65.6975 113.844 65.6045 113.369C65.5115 112.893 65.5148 112.404 65.614 111.93C65.7133 111.455 65.9066 111.005 66.1826 110.606Z" fill="#0E86F4"/>
<path d="M59.0815 121.789L59.5807 120.96C59.8288 120.547 60.1565 120.187 60.5451 119.901C60.9337 119.615 61.3754 119.408 61.8448 119.292C62.3141 119.177 62.8018 119.155 63.2797 119.228C63.7575 119.301 64.2161 119.468 64.629 119.718L64.8786 119.884C65.7046 120.387 66.2967 121.195 66.5254 122.132C66.7542 123.068 66.6009 124.057 66.0991 124.881L65.683 125.544C65.2104 126.369 64.4328 126.978 63.5158 127.241C62.5987 127.504 61.6148 127.401 60.7735 126.952H60.5238C60.0706 126.726 59.6701 126.407 59.348 126.017C59.0258 125.628 58.7892 125.175 58.6533 124.689C58.5175 124.202 58.4854 123.693 58.5591 123.194C58.6329 122.694 58.8108 122.216 59.0815 121.789Z" fill="#0E86F4"/>
<path d="M52.9523 133.634L53.3407 132.751C53.545 132.306 53.8378 131.907 54.2013 131.579C54.5648 131.25 54.9914 130.998 55.4555 130.838C55.9195 130.678 56.4114 130.613 56.9012 130.648C57.3911 130.682 57.8689 130.815 58.3057 131.039L58.5831 131.177C59.4322 131.599 60.0818 132.335 60.3928 133.228C60.7038 134.12 60.6516 135.099 60.2473 135.953L59.9145 136.699C59.52 137.581 58.7903 138.27 57.8855 138.617C56.9807 138.964 55.9747 138.939 55.0881 138.549H54.8107C54.3583 138.355 53.9498 138.072 53.6097 137.718C53.2696 137.363 53.0049 136.944 52.8314 136.485C52.6579 136.026 52.5792 135.537 52.5999 135.047C52.6207 134.557 52.7406 134.077 52.9523 133.634V133.634Z" fill="#0E86F4"/>
<path d="M47.8482 145.728L48.1533 144.899C48.3307 144.446 48.5968 144.032 48.9364 143.681C49.2759 143.331 49.682 143.051 50.1311 142.859C50.5803 142.666 51.0634 142.564 51.5524 142.559C52.0414 142.554 52.5266 142.645 52.9797 142.829H53.257C54.1385 143.191 54.8433 143.881 55.2215 144.752C55.5996 145.624 55.6213 146.608 55.2819 147.495L54.9768 148.323C54.6227 149.212 53.9368 149.929 53.063 150.326C52.1891 150.722 51.1951 150.766 50.2891 150.449H50.0118C49.5539 150.287 49.1336 150.034 48.7755 149.707C48.4175 149.379 48.129 148.984 47.9273 148.544C47.7256 148.103 47.6146 147.627 47.601 147.144C47.5874 146.66 47.6715 146.178 47.8482 145.728V145.728Z" fill="#0E86F4"/>
<path d="M43.5203 158.153L43.7977 157.297C43.9484 156.838 44.1886 156.413 44.5045 156.046C44.8204 155.68 45.2058 155.379 45.6387 155.161C46.0715 154.943 46.5433 154.812 47.027 154.776C47.5107 154.74 47.9968 154.799 48.4576 154.95H48.735C49.6482 155.259 50.4035 155.912 50.839 156.768C51.2745 157.625 51.3556 158.618 51.0649 159.533L50.7876 160.362C50.4995 161.271 49.8648 162.032 49.0195 162.481C48.1743 162.93 47.1858 163.032 46.2663 162.764H45.989C45.521 162.625 45.0855 162.395 44.7075 162.087C44.3295 161.78 44.0166 161.4 43.787 160.972C43.5574 160.543 43.4155 160.073 43.3698 159.589C43.324 159.105 43.3752 158.617 43.5203 158.153V158.153Z" fill="#0E86F4"/>
<path d="M39.9707 170.799L40.1926 169.943C40.3001 169.465 40.5025 169.013 40.788 168.614C41.0734 168.215 41.4362 167.877 41.8549 167.62C42.2736 167.362 42.7398 167.191 43.226 167.116C43.7122 167.041 44.2087 167.063 44.6861 167.182H44.9912C45.9233 167.434 46.7175 168.043 47.2007 168.875C47.6838 169.708 47.8169 170.697 47.5708 171.627L47.3489 172.483C47.244 172.951 47.0473 173.394 46.7701 173.786C46.4929 174.179 46.1406 174.513 45.7334 174.769C45.3263 175.026 44.8723 175.2 44.3974 175.281C43.9226 175.363 43.4363 175.35 42.9664 175.244H42.689C42.2149 175.134 41.7676 174.931 41.3732 174.647C40.9788 174.363 40.6453 174.003 40.3922 173.589C40.1391 173.176 39.9715 172.716 39.8991 172.236C39.8267 171.757 39.8511 171.268 39.9707 170.799V170.799Z" fill="#0E86F4"/>
<path d="M37.1138 183.61L37.2803 182.726C37.4924 181.787 38.0696 180.969 38.8855 180.451C39.7015 179.934 40.69 179.759 41.6351 179.965H41.9402C42.8745 180.183 43.6868 180.755 44.2046 181.559C44.7225 182.363 44.9052 183.336 44.7139 184.272L44.5198 185.128C44.307 186.045 43.7465 186.844 42.9556 187.358C42.1647 187.873 41.2045 188.063 40.2759 187.89H39.9986C39.0459 187.703 38.2069 187.147 37.6659 186.344C37.1249 185.542 36.9264 184.558 37.1138 183.61V183.61Z" fill="#0E86F4"/>
<path d="M173.194 75.5952C181.236 75.5952 187.756 69.1052 187.756 61.0994C187.756 53.0935 181.236 46.6035 173.194 46.6035C165.152 46.6035 158.632 53.0935 158.632 61.0994C158.632 69.1052 165.152 75.5952 173.194 75.5952Z" fill="#D9D9FC"/>
<path d="M173.194 69.3552C177.774 69.3552 181.487 65.659 181.487 61.0995C181.487 56.54 177.774 52.8438 173.194 52.8438C168.614 52.8438 164.9 56.54 164.9 61.0995C164.9 65.659 168.614 69.3552 173.194 69.3552Z" fill="#5252C4"/>
<path d="M206.119 145.231C211.189 145.231 215.3 141.139 215.3 136.091C215.3 131.044 211.189 126.952 206.119 126.952C201.048 126.952 196.938 131.044 196.938 136.091C196.938 141.139 201.048 145.231 206.119 145.231Z" fill="#D9D9FC"/>
<path d="M211.333 136.091C211.339 137.126 211.035 138.139 210.461 139.001C209.888 139.863 209.069 140.536 208.11 140.935C207.151 141.333 206.095 141.439 205.075 141.238C204.056 141.038 203.119 140.54 202.384 139.809C201.649 139.077 201.149 138.145 200.948 137.13C200.747 136.115 200.853 135.064 201.253 134.109C201.653 133.154 202.329 132.34 203.196 131.768C204.062 131.197 205.08 130.895 206.119 130.9C207.499 130.908 208.822 131.457 209.798 132.429C210.774 133.401 211.326 134.717 211.333 136.091V136.091Z" fill="#5252C4"/>
<path d="M170.032 231.102C175.102 231.102 179.213 227.01 179.213 221.963C179.213 216.915 175.102 212.823 170.032 212.823C164.961 212.823 160.851 216.915 160.851 221.963C160.851 227.01 164.961 231.102 170.032 231.102Z" fill="#D9D9FC"/>
<path d="M170.033 227.153C172.913 227.153 175.248 224.829 175.248 221.962C175.248 219.096 172.913 216.771 170.033 216.771C167.153 216.771 164.818 219.096 164.818 221.962C164.818 224.829 167.153 227.153 170.033 227.153Z" fill="#5252C4"/>
<path d="M214.301 22.7477C214.301 24.5553 213.762 26.3223 212.753 27.8252C211.745 29.3282 210.311 30.4996 208.633 31.1913C206.955 31.883 205.109 32.064 203.328 31.7114C201.547 31.3587 199.912 30.4883 198.628 29.2101C197.344 27.932 196.469 26.3035 196.115 24.5307C195.761 22.7578 195.942 20.9202 196.637 19.2502C197.332 17.5802 198.509 16.1529 200.019 15.1486C201.529 14.1444 203.304 13.6084 205.12 13.6084C207.555 13.6084 209.89 14.5713 211.612 16.2852C213.333 17.9992 214.301 20.3238 214.301 22.7477Z" fill="#D9D9FC"/>
<path d="M210.363 22.7478C210.363 23.7799 210.055 24.7889 209.479 25.6471C208.903 26.5052 208.084 27.1741 207.126 27.5691C206.169 27.9641 205.115 28.0674 204.098 27.866C203.081 27.6647 202.147 27.1677 201.413 26.4378C200.68 25.708 200.181 24.7782 199.979 23.7659C199.776 22.7536 199.88 21.7043 200.277 20.7508C200.674 19.7972 201.346 18.9822 202.208 18.4088C203.07 17.8354 204.083 17.5293 205.12 17.5293C206.511 17.5293 207.844 18.0791 208.827 19.0578C209.81 20.0364 210.363 21.3638 210.363 22.7478Z" fill="#5252C4"/>
<path d="M49.2626 187.946C49.2626 189.755 48.7235 191.523 47.7134 193.026C46.7033 194.53 45.2678 195.701 43.5886 196.392C41.9093 197.083 40.0619 197.262 38.2801 196.908C36.4984 196.553 34.8626 195.68 33.5797 194.399C32.2968 193.118 31.4246 191.487 31.0734 189.712C30.7223 187.937 30.9081 186.099 31.6073 184.429C32.3064 182.76 33.4875 181.334 35.001 180.333C36.5144 179.333 38.2922 178.801 40.1093 178.807C41.3136 178.807 42.5062 179.043 43.6185 179.503C44.7309 179.963 45.7412 180.636 46.5915 181.485C47.4418 182.334 48.1155 183.342 48.5739 184.451C49.0322 185.559 49.2663 186.747 49.2626 187.946V187.946Z" fill="#D9D9FC"/>
<path d="M45.3237 187.945C45.3237 188.978 45.0155 189.988 44.4382 190.847C43.8609 191.706 43.0405 192.375 42.081 192.769C41.1214 193.163 40.066 193.265 39.0483 193.061C38.0306 192.858 37.0966 192.358 36.3645 191.625C35.6325 190.893 35.1354 189.96 34.9362 188.946C34.7371 187.932 34.8449 186.882 35.2459 185.929C35.647 184.976 36.3232 184.163 37.189 183.593C38.0547 183.023 39.071 182.721 40.109 182.727C40.7961 182.727 41.4765 182.862 42.111 183.124C42.7455 183.387 43.3216 183.772 43.8062 184.257C44.2908 184.742 44.6743 185.317 44.9347 185.95C45.1951 186.583 45.3273 187.261 45.3237 187.945V187.945Z" fill="#5252C4"/>
<path d="M27.2948 87.606C27.3003 89.4171 26.7651 91.189 25.7571 92.6967C24.7492 94.2045 23.3139 95.3801 21.6335 96.0744C19.9531 96.7688 18.1034 96.9504 16.3191 96.5964C14.5348 96.2424 12.8964 95.3687 11.6119 94.0861C10.3273 92.8035 9.45454 91.1699 9.10432 89.3927C8.7541 87.6155 8.94223 85.7747 9.64483 84.1041C10.3474 82.4335 11.5328 81.0084 13.0505 80.0096C14.5682 79.0108 16.3498 78.4834 18.1692 78.4943C20.5897 78.5089 22.9066 79.4744 24.6156 81.1808C26.3247 82.8872 27.2876 85.1964 27.2948 87.606Z" fill="#D9D9FC"/>
<path d="M23.3558 87.6062C23.3613 88.6418 23.057 89.6557 22.4818 90.5186C21.9067 91.3816 21.0866 92.0547 20.1259 92.4522C19.1652 92.8498 18.1074 92.9538 17.0872 92.7511C16.0669 92.5483 15.1304 92.048 14.3967 91.3137C13.663 90.5795 13.1654 89.6445 12.9671 88.6279C12.7689 87.6112 12.879 86.5588 13.2835 85.6047C13.688 84.6505 14.3686 83.8377 15.2385 83.2698C16.1085 82.7018 17.1286 82.4044 18.1689 82.4153C19.5448 82.4298 20.8599 82.9822 21.8303 83.9534C22.8007 84.9245 23.3486 86.2365 23.3558 87.6062V87.6062Z" fill="#5252C4"/>
<defs>
<linearGradient id="paint0_linear_1643_7513" x1="87.1949" y1="224.723" x2="216.177" y2="36.8586" gradientUnits="userSpaceOnUse">
<stop offset="0.09" stop-color="#5481BB"/>
<stop offset="0.28" stop-color="#6395D8"/>
<stop offset="0.53" stop-color="#679CE6"/>
<stop offset="0.75" stop-color="#70A9F8"/>
<stop offset="0.9" stop-color="#73ADFF"/>
</linearGradient>
<linearGradient id="paint1_linear_1643_7513" x1="33.2272" y1="196.231" x2="142.994" y2="-29.0462" gradientUnits="userSpaceOnUse">
<stop offset="0.09" stop-color="#8BABA8"/>
<stop offset="0.28" stop-color="#9EC8C4"/>
<stop offset="0.53" stop-color="#B2E6E1"/>
<stop offset="0.75" stop-color="#BEF8F3"/>
<stop offset="0.9" stop-color="#C2FFF9"/>
</linearGradient>
<linearGradient id="paint2_linear_1643_7513" x1="13.8075" y1="234.759" x2="96.13" y2="-20.1012" gradientUnits="userSpaceOnUse">
<stop offset="0.09" stop-color="#6AB559"/>
<stop offset="0.23" stop-color="#7BC867"/>
<stop offset="0.5" stop-color="#96E67E"/>
<stop offset="0.73" stop-color="#A7F88C"/>
<stop offset="0.9" stop-color="#ADFF91"/>
</linearGradient>
<linearGradient id="paint3_linear_1643_7513" x1="59.8395" y1="266.934" x2="199.043" y2="41.0082" gradientUnits="userSpaceOnUse">
<stop offset="0.09" stop-color="#7CAB71"/>
<stop offset="0.23" stop-color="#86BE78"/>
<stop offset="0.5" stop-color="#95DC84"/>
<stop offset="0.73" stop-color="#9FEE8B"/>
<stop offset="0.9" stop-color="#A2F58E"/>
</linearGradient>
<linearGradient id="paint4_linear_1643_7513" x1="229.535" y1="221.07" x2="229.687" y2="218.474" gradientUnits="userSpaceOnUse">
<stop offset="0.09" stop-color="#7CAB71"/>
<stop offset="0.23" stop-color="#86BE78"/>
<stop offset="0.5" stop-color="#95DC84"/>
<stop offset="0.73" stop-color="#9FEE8B"/>
<stop offset="0.9" stop-color="#A2F58E"/>
</linearGradient>
<linearGradient id="paint5_linear_1643_7513" x1="92.4509" y1="115.169" x2="106.449" y2="113.106" gradientUnits="userSpaceOnUse">
<stop offset="0.09" stop-color="#7CAB71"/>
<stop offset="0.23" stop-color="#86BE78"/>
<stop offset="0.5" stop-color="#95DC84"/>
<stop offset="0.73" stop-color="#9FEE8B"/>
<stop offset="0.9" stop-color="#A2F58E"/>
</linearGradient>
<linearGradient id="paint6_linear_1643_7513" x1="7551.33" y1="17741.8" x2="13989.2" y2="4420.63" gradientUnits="userSpaceOnUse">
<stop offset="0.09" stop-color="#6AB559"/>
<stop offset="0.23" stop-color="#7BC867"/>
<stop offset="0.5" stop-color="#96E67E"/>
<stop offset="0.73" stop-color="#A7F88C"/>
<stop offset="0.9" stop-color="#ADFF91"/>
</linearGradient>
<linearGradient id="paint7_linear_1643_7513" x1="9515.26" y1="14960.6" x2="13885.1" y2="3637.02" gradientUnits="userSpaceOnUse">
<stop offset="0.09" stop-color="#6AB559"/>
<stop offset="0.23" stop-color="#7BC867"/>
<stop offset="0.5" stop-color="#96E67E"/>
<stop offset="0.73" stop-color="#A7F88C"/>
<stop offset="0.9" stop-color="#ADFF91"/>
</linearGradient>
<linearGradient id="paint8_linear_1643_7513" x1="2863.47" y1="25924.2" x2="16309.5" y2="10345" gradientUnits="userSpaceOnUse">
<stop offset="0.09" stop-color="#6AB559"/>
<stop offset="0.23" stop-color="#7BC867"/>
<stop offset="0.5" stop-color="#96E67E"/>
<stop offset="0.73" stop-color="#A7F88C"/>
<stop offset="0.9" stop-color="#ADFF91"/>
</linearGradient>
</defs>
</svg>
