<svg width="16" height="16" viewBox="0 0 16 16" fill="none" xmlns="http://www.w3.org/2000/svg">
<g clip-path="url(#clip0_1927_958)">
<path d="M13.638 3.0367L8.32398 0.0840276C8.22488 0.0289207 8.11337 0 7.99998 0C7.88659 0 7.77508 0.0289207 7.67598 0.0840276L2.36198 3.0367C2.05025 3.20989 1.7905 3.46329 1.60963 3.77063C1.42876 4.07798 1.33336 4.42809 1.33331 4.7847V12.6667C1.33437 13.5504 1.6859 14.3977 2.31079 15.0226C2.93569 15.6475 3.78292 15.999 4.66665 16.0001H11.3333C12.217 15.999 13.0643 15.6475 13.6892 15.0226C14.3141 14.3977 14.6656 13.5504 14.6667 12.6667V4.7847C14.6666 4.42809 14.5712 4.07798 14.3903 3.77063C14.2095 3.46329 13.9497 3.20989 13.638 3.0367V3.0367ZM13.3333 12.6667C13.3333 13.1972 13.1226 13.7059 12.7475 14.0809C12.3725 14.456 11.8637 14.6667 11.3333 14.6667H4.66665C4.13621 14.6667 3.62751 14.456 3.25243 14.0809C2.87736 13.7059 2.66665 13.1972 2.66665 12.6667V4.7847C2.66635 4.66545 2.69805 4.5483 2.75844 4.44546C2.81882 4.34263 2.90569 4.25787 3.00998 4.20004L7.99998 1.42936L12.9906 4.20004C13.0948 4.25796 13.1815 4.34275 13.2418 4.44558C13.3021 4.54841 13.3337 4.66551 13.3333 4.7847V12.6667Z" fill="#0E86F4"/>
<path d="M8 5.66699C8.55228 5.66699 9 5.21928 9 4.66699C9 4.11471 8.55228 3.66699 8 3.66699C7.44772 3.66699 7 4.11471 7 4.66699C7 5.21928 7.44772 5.66699 8 5.66699Z" fill="#0E86F4"/>
</g>
<defs>
<clipPath id="clip0_1927_958">
<rect width="16" height="16" fill="white"/>
</clipPath>
</defs>
</svg>
