<svg width="16" height="16" viewBox="0 0 16 16" fill="none" xmlns="http://www.w3.org/2000/svg">
<g clip-path="url(#clip0_1927_917)">
<path d="M15.3333 14.6667H2C1.82319 14.6667 1.65362 14.5964 1.5286 14.4714C1.40357 14.3464 1.33333 14.1768 1.33333 14V0.666667C1.33333 0.489856 1.2631 0.320286 1.13807 0.195262C1.01305 0.0702379 0.843478 0 0.666667 0C0.489856 0 0.320286 0.0702379 0.195262 0.195262C0.0702379 0.320286 0 0.489856 0 0.666667L0 14C0 14.5304 0.210714 15.0391 0.585786 15.4142C0.960859 15.7893 1.46957 16 2 16H15.3333C15.5101 16 15.6797 15.9298 15.8047 15.8047C15.9298 15.6797 16 15.5101 16 15.3333C16 15.1565 15.9298 14.987 15.8047 14.8619C15.6797 14.7369 15.5101 14.6667 15.3333 14.6667Z" fill="#0E86F4"/>
<path d="M10.0002 13.333C10.177 13.333 10.3466 13.2628 10.4716 13.1377C10.5966 13.0127 10.6668 12.8431 10.6668 12.6663V7.99967C10.6668 7.82286 10.5966 7.65329 10.4716 7.52827C10.3466 7.40325 10.177 7.33301 10.0002 7.33301C9.82336 7.33301 9.65379 7.40325 9.52876 7.52827C9.40373 7.65329 9.3335 7.82286 9.3335 7.99967V12.6663C9.3335 12.8431 9.40373 13.0127 9.52876 13.1377C9.65379 13.2628 9.82336 13.333 10.0002 13.333Z" fill="#0E86F4"/>
<path d="M4.66666 13.333C4.84348 13.333 5.01304 13.2628 5.13807 13.1377C5.26309 13.0127 5.33333 12.8431 5.33333 12.6663V7.99967C5.33333 7.82286 5.26309 7.65329 5.13807 7.52827C5.01304 7.40325 4.84348 7.33301 4.66666 7.33301C4.48985 7.33301 4.32029 7.40325 4.19526 7.52827C4.07024 7.65329 4 7.82286 4 7.99967V12.6663C4 12.8431 4.07024 13.0127 4.19526 13.1377C4.32029 13.2628 4.48985 13.333 4.66666 13.333Z" fill="#0E86F4"/>
<path d="M12.6667 13.3333C12.8435 13.3333 13.0131 13.2631 13.1381 13.1381C13.2631 13.013 13.3333 12.8435 13.3333 12.6667V4.66667C13.3333 4.48986 13.2631 4.32029 13.1381 4.19526C13.0131 4.07024 12.8435 4 12.6667 4C12.4899 4 12.3203 4.07024 12.1953 4.19526C12.0702 4.32029 12 4.48986 12 4.66667V12.6667C12 12.8435 12.0702 13.013 12.1953 13.1381C12.3203 13.2631 12.4899 13.3333 12.6667 13.3333Z" fill="#0E86F4"/>
<path d="M7.33317 13.3333C7.50998 13.3333 7.67955 13.2631 7.80457 13.1381C7.9296 13.013 7.99983 12.8435 7.99983 12.6667V4.66667C7.99983 4.48986 7.9296 4.32029 7.80457 4.19526C7.67955 4.07024 7.50998 4 7.33317 4C7.15636 4 6.98679 4.07024 6.86177 4.19526C6.73674 4.32029 6.6665 4.48986 6.6665 4.66667V12.6667C6.6665 12.8435 6.73674 13.013 6.86177 13.1381C6.98679 13.2631 7.15636 13.3333 7.33317 13.3333Z" fill="#0E86F4"/>
</g>
<defs>
<clipPath id="clip0_1927_917">
<rect width="16" height="16" fill="white"/>
</clipPath>
</defs>
</svg>
