<svg width="16" height="16" viewBox="0 0 16 16" fill="none" xmlns="http://www.w3.org/2000/svg">
<g clip-path="url(#clip0_1927_940)">
<path d="M4.66667 0H2.66667C1.95942 0 1.28115 0.280952 0.781049 0.781049C0.280952 1.28115 0 1.95942 0 2.66667L0 4.66667C0 5.37391 0.280952 6.05219 0.781049 6.55229C1.28115 7.05238 1.95942 7.33333 2.66667 7.33333H4.66667C5.37391 7.33333 6.05219 7.05238 6.55229 6.55229C7.05238 6.05219 7.33333 5.37391 7.33333 4.66667V2.66667C7.33333 1.95942 7.05238 1.28115 6.55229 0.781049C6.05219 0.280952 5.37391 0 4.66667 0V0ZM6 4.66667C6 5.02029 5.85952 5.35943 5.60948 5.60948C5.35943 5.85952 5.02029 6 4.66667 6H2.66667C2.31304 6 1.97391 5.85952 1.72386 5.60948C1.47381 5.35943 1.33333 5.02029 1.33333 4.66667V2.66667C1.33333 2.31304 1.47381 1.97391 1.72386 1.72386C1.97391 1.47381 2.31304 1.33333 2.66667 1.33333H4.66667C5.02029 1.33333 5.35943 1.47381 5.60948 1.72386C5.85952 1.97391 6 2.31304 6 2.66667V4.66667Z" fill="#0E86F4"/>
<path d="M4.66667 8.66699H2.66667C1.95942 8.66699 1.28115 8.94794 0.781049 9.44804C0.280952 9.94814 0 10.6264 0 11.3337L0 13.3337C0 14.0409 0.280952 14.7192 0.781049 15.2193C1.28115 15.7194 1.95942 16.0003 2.66667 16.0003H4.66667C5.37391 16.0003 6.05219 15.7194 6.55229 15.2193C7.05239 14.7192 7.33334 14.0409 7.33334 13.3337V11.3337C7.33334 10.6264 7.05239 9.94814 6.55229 9.44804C6.05219 8.94794 5.37391 8.66699 4.66667 8.66699V8.66699ZM6 13.3337C6 13.6873 5.85953 14.0264 5.60948 14.2765C5.35943 14.5265 5.02029 14.667 4.66667 14.667H2.66667C2.31305 14.667 1.97391 14.5265 1.72386 14.2765C1.47381 14.0264 1.33333 13.6873 1.33333 13.3337V11.3337C1.33333 10.98 1.47381 10.6409 1.72386 10.3909C1.97391 10.1408 2.31305 10.0003 2.66667 10.0003H4.66667C5.02029 10.0003 5.35943 10.1408 5.60948 10.3909C5.85953 10.6409 6 10.98 6 11.3337V13.3337Z" fill="#0E86F4"/>
<path d="M13.3332 8.66699H11.3332C10.6259 8.66699 9.94765 8.94794 9.44755 9.44804C8.94746 9.94814 8.6665 10.6264 8.6665 11.3337V13.3337C8.6665 14.0409 8.94746 14.7192 9.44755 15.2193C9.94765 15.7194 10.6259 16.0003 11.3332 16.0003H13.3332C14.0404 16.0003 14.7187 15.7194 15.2188 15.2193C15.7189 14.7192 15.9998 14.0409 15.9998 13.3337V11.3337C15.9998 10.6264 15.7189 9.94814 15.2188 9.44804C14.7187 8.94794 14.0404 8.66699 13.3332 8.66699V8.66699ZM14.6665 13.3337C14.6665 13.6873 14.526 14.0264 14.276 14.2765C14.0259 14.5265 13.6868 14.667 13.3332 14.667H11.3332C10.9796 14.667 10.6404 14.5265 10.3904 14.2765C10.1403 14.0264 9.99984 13.6873 9.99984 13.3337V11.3337C9.99984 10.98 10.1403 10.6409 10.3904 10.3909C10.6404 10.1408 10.9796 10.0003 11.3332 10.0003H13.3332C13.6868 10.0003 14.0259 10.1408 14.276 10.3909C14.526 10.6409 14.6665 10.98 14.6665 11.3337V13.3337Z" fill="#0E86F4"/>
<path d="M9.33317 4.66699H11.3332V6.66699C11.3332 6.8438 11.4034 7.01337 11.5284 7.1384C11.6535 7.26342 11.823 7.33366 11.9998 7.33366C12.1766 7.33366 12.3462 7.26342 12.4712 7.1384C12.5963 7.01337 12.6665 6.8438 12.6665 6.66699V4.66699H14.6665C14.8433 4.66699 15.0129 4.59675 15.1379 4.47173C15.2629 4.34671 15.3332 4.17714 15.3332 4.00033C15.3332 3.82351 15.2629 3.65394 15.1379 3.52892C15.0129 3.4039 14.8433 3.33366 14.6665 3.33366H12.6665V1.33366C12.6665 1.15685 12.5963 0.987279 12.4712 0.862254C12.3462 0.73723 12.1766 0.666992 11.9998 0.666992C11.823 0.666992 11.6535 0.73723 11.5284 0.862254C11.4034 0.987279 11.3332 1.15685 11.3332 1.33366V3.33366H9.33317C9.15636 3.33366 8.98679 3.4039 8.86177 3.52892C8.73674 3.65394 8.6665 3.82351 8.6665 4.00033C8.6665 4.17714 8.73674 4.34671 8.86177 4.47173C8.98679 4.59675 9.15636 4.66699 9.33317 4.66699V4.66699Z" fill="#0E86F4"/>
</g>
<defs>
<clipPath id="clip0_1927_940">
<rect width="16" height="16" fill="white"/>
</clipPath>
</defs>
</svg>
