<svg width="16" height="16" viewBox="0 0 16 16" fill="none" xmlns="http://www.w3.org/2000/svg">
<g clip-path="url(#clip0_1927_952)">
<path d="M10.6667 0H5.33333C4.4496 0.00105857 3.60237 0.352588 2.97748 0.97748C2.35259 1.60237 2.00106 2.4496 2 3.33333V15.3333C2.00009 15.4546 2.03326 15.5735 2.09592 15.6773C2.15858 15.7811 2.24837 15.8659 2.35563 15.9225C2.46288 15.979 2.58353 16.0053 2.70459 15.9984C2.82565 15.9915 2.94254 15.9517 3.04267 15.8833L4.44667 14.924L5.85067 15.8833C5.96159 15.9593 6.09289 15.9999 6.22733 15.9999C6.36177 15.9999 6.49307 15.9593 6.604 15.8833L8.004 14.924L9.404 15.8833C9.51499 15.9594 9.64642 16.0002 9.781 16.0002C9.91558 16.0002 10.047 15.9594 10.158 15.8833L11.558 14.9247L12.958 15.8827C13.0581 15.9508 13.1748 15.9905 13.2957 15.9973C13.4166 16.0041 13.5371 15.9779 13.6442 15.9214C13.7514 15.865 13.8411 15.7804 13.9037 15.6768C13.9664 15.5731 13.9997 15.4544 14 15.3333V3.33333C13.9989 2.4496 13.6474 1.60237 13.0225 0.97748C12.3976 0.352588 11.5504 0.00105857 10.6667 0V0ZM12.6667 14.0667L11.9333 13.5653C11.8223 13.4891 11.6907 13.4483 11.556 13.4483C11.4213 13.4483 11.2897 13.4891 11.1787 13.5653L9.77866 14.5247L8.37866 13.5653C8.26767 13.4892 8.13624 13.4485 8.00166 13.4485C7.86709 13.4485 7.73566 13.4892 7.62466 13.5653L6.22467 14.5247L4.82467 13.5653C4.71381 13.4895 4.58264 13.449 4.44833 13.449C4.31403 13.449 4.18286 13.4895 4.072 13.5653L3.33333 14.0667V3.33333C3.33333 2.8029 3.54405 2.29419 3.91912 1.91912C4.29419 1.54405 4.8029 1.33333 5.33333 1.33333H10.6667C11.1971 1.33333 11.7058 1.54405 12.0809 1.91912C12.4559 2.29419 12.6667 2.8029 12.6667 3.33333V14.0667Z" fill="#0E86F4"/>
<path d="M10.6665 5.33301H5.33317C4.96498 5.33301 4.6665 5.63148 4.6665 5.99967C4.6665 6.36786 4.96498 6.66634 5.33317 6.66634H10.6665C11.0347 6.66634 11.3332 6.36786 11.3332 5.99967C11.3332 5.63148 11.0347 5.33301 10.6665 5.33301Z" fill="#0E86F4"/>
<path d="M9.33317 8H5.33317C4.96498 8 4.6665 8.29848 4.6665 8.66667C4.6665 9.03486 4.96498 9.33334 5.33317 9.33334H9.33317C9.70136 9.33334 9.99984 9.03486 9.99984 8.66667C9.99984 8.29848 9.70136 8 9.33317 8Z" fill="#0E86F4"/>
</g>
<defs>
<clipPath id="clip0_1927_952">
<rect width="16" height="16" fill="white"/>
</clipPath>
</defs>
</svg>
