<svg width="16" height="16" viewBox="0 0 16 16" fill="none" xmlns="http://www.w3.org/2000/svg">
<g clip-path="url(#clip0_2204_9132)">
<path d="M3 11.6667H1.33333C0.979712 11.6667 0.640573 11.8072 0.390525 12.0573C0.140476 12.3073 0 12.6465 0 13.0001L0 14.6668C0 15.0204 0.140476 15.3595 0.390525 15.6096C0.640573 15.8596 0.979712 16.0001 1.33333 16.0001H3C3.35363 16.0001 3.69276 15.8596 3.94281 15.6096C4.19286 15.3595 4.33334 15.0204 4.33334 14.6668V13.0001C4.33334 12.6465 4.19286 12.3073 3.94281 12.0573C3.69276 11.8072 3.35363 11.6667 3 11.6667ZM3 14.6668H1.33333V13.0001H3V14.6668Z" fill="#0E7DE2"/>
<path d="M14.6666 11.6667H13C12.6463 11.6667 12.3072 11.8072 12.0572 12.0573C11.8071 12.3073 11.6666 12.6465 11.6666 13.0001V14.6668C11.6666 15.0204 11.8071 15.3595 12.0572 15.6096C12.3072 15.8596 12.6463 16.0001 13 16.0001H14.6666C15.0203 16.0001 15.3594 15.8596 15.6094 15.6096C15.8595 15.3595 16 15.0204 16 14.6668V13.0001C16 12.6465 15.8595 12.3073 15.6094 12.0573C15.3594 11.8072 15.0203 11.6667 14.6666 11.6667ZM14.6666 14.6668H13V13.0001H14.6666V14.6668Z" fill="#0E7DE2"/>
<path d="M3 5.83325H1.33333C0.979712 5.83325 0.640573 5.97373 0.390525 6.22378C0.140476 6.47383 0 6.81296 0 7.16659L0 8.83325C0 9.18687 0.140476 9.52601 0.390525 9.77606C0.640573 10.0261 0.979712 10.1666 1.33333 10.1666H3C3.35363 10.1666 3.69276 10.0261 3.94281 9.77606C4.19286 9.52601 4.33334 9.18687 4.33334 8.83325V7.16659C4.33334 6.81296 4.19286 6.47383 3.94281 6.22378C3.69276 5.97373 3.35363 5.83325 3 5.83325ZM3 8.83325H1.33333V7.16659H3V8.83325Z" fill="#0E7DE2"/>
<path d="M14.6666 5.83325H13C12.6463 5.83325 12.3072 5.97373 12.0572 6.22378C11.8071 6.47383 11.6666 6.81296 11.6666 7.16659V8.83325C11.6666 9.18687 11.8071 9.52601 12.0572 9.77606C12.3072 10.0261 12.6463 10.1666 13 10.1666H14.6666C15.0203 10.1666 15.3594 10.0261 15.6094 9.77606C15.8595 9.52601 16 9.18687 16 8.83325V7.16659C16 6.81296 15.8595 6.47383 15.6094 6.22378C15.3594 5.97373 15.0203 5.83325 14.6666 5.83325ZM14.6666 8.83325H13V7.16659H14.6666V8.83325Z" fill="#0E7DE2"/>
<path d="M3 0H1.33333C0.979711 0 0.640573 0.140476 0.390524 0.390524C0.140476 0.640573 0 0.979711 0 1.33333L0 3C0 3.35362 0.140476 3.69276 0.390524 3.94281C0.640573 4.19286 0.979711 4.33333 1.33333 4.33333H3C3.35362 4.33333 3.69276 4.19286 3.94281 3.94281C4.19286 3.69276 4.33333 3.35362 4.33333 3V1.33333C4.33333 0.979711 4.19286 0.640573 3.94281 0.390524C3.69276 0.140476 3.35362 0 3 0V0ZM3 3H1.33333V1.33333H3V3Z" fill="#0E7DE2"/>
<path d="M8.83337 11.6667H7.16671C6.81309 11.6667 6.47395 11.8072 6.2239 12.0573C5.97385 12.3073 5.83337 12.6465 5.83337 13.0001V14.6668C5.83337 15.0204 5.97385 15.3595 6.2239 15.6096C6.47395 15.8596 6.81309 16.0001 7.16671 16.0001H8.83337C9.187 16.0001 9.52613 15.8596 9.77618 15.6096C10.0262 15.3595 10.1667 15.0204 10.1667 14.6668V13.0001C10.1667 12.6465 10.0262 12.3073 9.77618 12.0573C9.52613 11.8072 9.187 11.6667 8.83337 11.6667ZM8.83337 14.6668H7.16671V13.0001H8.83337V14.6668Z" fill="#0E7DE2"/>
<path d="M8.83337 5.83325H7.16671C6.81309 5.83325 6.47395 5.97373 6.2239 6.22378C5.97385 6.47383 5.83337 6.81296 5.83337 7.16659V8.83325C5.83337 9.18687 5.97385 9.52601 6.2239 9.77606C6.47395 10.0261 6.81309 10.1666 7.16671 10.1666H8.83337C9.187 10.1666 9.52613 10.0261 9.77618 9.77606C10.0262 9.52601 10.1667 9.18687 10.1667 8.83325V7.16659C10.1667 6.81296 10.0262 6.47383 9.77618 6.22378C9.52613 5.97373 9.187 5.83325 8.83337 5.83325ZM8.83337 8.83325H7.16671V7.16659H8.83337V8.83325Z" fill="#0E7DE2"/>
<path d="M8.83337 0H7.16671C6.81309 0 6.47395 0.140476 6.2239 0.390525C5.97385 0.640573 5.83337 0.979712 5.83337 1.33333V3C5.83337 3.35363 5.97385 3.69276 6.2239 3.94281C6.47395 4.19286 6.81309 4.33334 7.16671 4.33334H8.83337C9.187 4.33334 9.52613 4.19286 9.77618 3.94281C10.0262 3.69276 10.1667 3.35363 10.1667 3V1.33333C10.1667 0.979712 10.0262 0.640573 9.77618 0.390525C9.52613 0.140476 9.187 0 8.83337 0V0ZM8.83337 3H7.16671V1.33333H8.83337V3Z" fill="#0E7DE2"/>
<path d="M14.6666 0H13C12.6463 0 12.3072 0.140476 12.0572 0.390525C11.8071 0.640573 11.6666 0.979712 11.6666 1.33333V3C11.6666 3.35363 11.8071 3.69276 12.0572 3.94281C12.3072 4.19286 12.6463 4.33334 13 4.33334H14.6666C15.0203 4.33334 15.3594 4.19286 15.6094 3.94281C15.8595 3.69276 16 3.35363 16 3V1.33333C16 0.979712 15.8595 0.640573 15.6094 0.390525C15.3594 0.140476 15.0203 0 14.6666 0V0ZM14.6666 3H13V1.33333H14.6666V3Z" fill="#0E7DE2"/>
</g>
<defs>
<clipPath id="clip0_2204_9132">
<rect width="16" height="16" fill="white"/>
</clipPath>
</defs>
</svg>
