<svg width="16" height="16" viewBox="0 0 16 16" fill="none" xmlns="http://www.w3.org/2000/svg">
<g clip-path="url(#clip0_2000_8407)">
<path d="M15.3333 7.33325H0.666666C0.298477 7.33325 0 7.63173 0 7.99992C0 8.36811 0.298477 8.66658 0.666666 8.66658H15.3333C15.7015 8.66658 16 8.36811 16 7.99992C16 7.63173 15.7015 7.33325 15.3333 7.33325Z" fill="#0E86F4"/>
<path d="M15.3333 2.66675H0.666666C0.298477 2.66675 0 2.96522 0 3.33341C0 3.7016 0.298477 4.00008 0.666666 4.00008H15.3333C15.7015 4.00008 16 3.7016 16 3.33341C16 2.96522 15.7015 2.66675 15.3333 2.66675Z" fill="#0E86F4"/>
<path d="M15.3333 12H0.666666C0.298477 12 0 12.2985 0 12.6667C0 13.0349 0.298477 13.3333 0.666666 13.3333H15.3333C15.7015 13.3333 16 13.0349 16 12.6667C16 12.2985 15.7015 12 15.3333 12Z" fill="#0E86F4"/>
</g>
<defs>
<clipPath id="clip0_2000_8407">
<rect width="16" height="16" fill="white"/>
</clipPath>
</defs>
</svg>
