<svg width="10" height="5" viewBox="0 0 10 5" fill="none" xmlns="http://www.w3.org/2000/svg">
<path d="M8.91398 0.789248C8.85975 0.734573 8.79523 0.691176 8.72415 0.661561C8.65307 0.631946 8.57682 0.616699 8.49981 0.616699C8.42281 0.616699 8.34656 0.631946 8.27548 0.661561C8.20439 0.691176 8.13988 0.734573 8.08565 0.789248L5.41398 3.46091C5.35975 3.51558 5.29523 3.55898 5.22415 3.5886C5.15306 3.61821 5.07682 3.63346 4.99981 3.63346C4.92281 3.63346 4.84656 3.61821 4.77548 3.5886C4.70439 3.55898 4.63987 3.51558 4.58565 3.46091L1.91398 0.789248C1.85975 0.734573 1.79523 0.691176 1.72415 0.661561C1.65306 0.631946 1.57682 0.616699 1.49981 0.616699C1.4228 0.616699 1.34656 0.631946 1.27547 0.661561C1.20439 0.691176 1.13987 0.734573 1.08564 0.789248C0.976998 0.898542 0.916016 1.04639 0.916016 1.2005C0.916016 1.35461 0.976998 1.50245 1.08564 1.61175L3.76315 4.28924C4.09127 4.61696 4.53606 4.80103 4.99981 4.80103C5.46356 4.80103 5.90835 4.61696 6.23648 4.28924L8.91398 1.61175C9.02263 1.50245 9.08361 1.35461 9.08361 1.2005C9.08361 1.04639 9.02263 0.898542 8.91398 0.789248Z" fill="#606266"/>
</svg>
