<svg width="17" height="16" viewBox="0 0 17 16" fill="none" xmlns="http://www.w3.org/2000/svg">
<g clip-path="url(#clip0_5540_25387)">
<path d="M10.9774 6.99059L8.53596 5.24155C8.34527 5.10513 8.11964 5.02296 7.88408 5.00416C7.64852 4.98535 7.41223 5.03063 7.2014 5.135C6.99057 5.23936 6.81343 5.39872 6.68963 5.59541C6.56583 5.79211 6.50019 6.01845 6.5 6.24936V9.74918C6.49963 9.98031 6.56493 10.207 6.68861 10.404C6.81229 10.6011 6.98952 10.7607 7.20056 10.8652C7.41159 10.9696 7.64816 11.0148 7.88393 10.9957C8.1197 10.9766 8.34542 10.894 8.53596 10.757L10.9774 9.00795C11.1394 8.8918 11.2711 8.74002 11.3619 8.56489C11.4527 8.38976 11.5 8.19621 11.5 7.99989C11.5 7.80358 11.4527 7.61002 11.3619 7.43489C11.2711 7.25977 11.1394 7.10798 10.9774 6.99184V6.99059Z" fill="#0E86F4"/>
<circle cx="8.5" cy="8" r="7.5" stroke="#0E86F4"/>
</g>
<defs>
<clipPath id="clip0_5540_25387">
<rect width="16" height="16" fill="white" transform="translate(0.5)"/>
</clipPath>
</defs>
</svg>
